<?xml version="1.0" encoding="UTF-8" standalone="no"?>
<svg width="128px" height="128px" viewBox="0 0 128 128" version="1.1" xmlns="http://www.w3.org/2000/svg" xmlns:xlink="http://www.w3.org/1999/xlink" xmlns:sketch="http://www.bohemiancoding.com/sketch/ns">
    <!-- Generator: Sketch 3.4 (15588) - http://www.bohemiancoding.com/sketch -->
    <title>Phone</title>
    <desc>Created with Sketch.</desc>
    <defs>
        <path id="path-1" d="M0,0.135 L62.602,0.135 L62.602,102 L0,102 L0,0.135 Z"></path>
        <path id="path-3" d="M0,0.135 L62.602,0.135 L62.602,102 L0,102 L0,0.135 Z"></path>
        <path id="path-5" d="M0,0.135 L62.602,0.135 L62.602,102 L0,102 L0,0.135 Z"></path>
        <path id="path-7" d="M0,0.135 L62.602,0.135 L62.602,102 L0,102 L0,0.135 Z"></path>
    </defs>
    <g id="Icons" stroke="none" stroke-width="1" fill="none" fill-rule="evenodd" sketch:type="MSPage">
        <g id="128" sketch:type="MSArtboardGroup">
            <g id="Phone" sketch:type="MSLayerGroup">
                <rect id="Rectangle-1" fill-opacity="0" fill="#D8D8D8" sketch:type="MSShapeGroup" x="0" y="0" width="128" height="128"></rect>
                <path d="M45.511,47.343 L34,47.343 L34,37.857 L45.511,37.857 L45.511,47.343 Z" id="Fill-1" fill="#ACEFF9" sketch:type="MSShapeGroup"></path>
                <path d="M33.9999,36.8566 L32.9999,37.8566 L32.9999,47.3426 L33.9999,48.3426 L45.5109,48.3426 L46.5109,47.3426 L46.5109,37.8566 L45.5109,36.8566 L33.9999,36.8566 Z M34.9999,38.8566 L44.5109,38.8566 L44.5109,46.3426 L34.9999,46.3426 L34.9999,38.8566 Z" id="Fill-2" fill="#21CEDB" sketch:type="MSShapeGroup"></path>
                <path d="M45.511,60.961 L34,60.961 L34,51.475 L45.511,51.475 L45.511,60.961 Z" id="Fill-3" fill="#ACEFF9" sketch:type="MSShapeGroup"></path>
                <path d="M33.9999,50.4745 L32.9999,51.4745 L32.9999,60.9615 L33.9999,61.9615 L45.5109,61.9615 L46.5109,60.9615 L46.5109,51.4745 L45.5109,50.4745 L33.9999,50.4745 Z M34.9999,52.4745 L44.5109,52.4745 L44.5109,59.9605 L34.9999,59.9605 L34.9999,52.4745 Z" id="Fill-4" fill="#21CEDB" sketch:type="MSShapeGroup"></path>
                <path d="M83.091,47.343 L94.602,47.343 L94.602,37.857 L83.091,37.857 L83.091,47.343 Z" id="Fill-5" fill="#ACEFF9" sketch:type="MSShapeGroup"></path>
                <path d="M83.0904,36.8566 L82.0904,37.8566 L82.0904,47.3426 L83.0904,48.3426 L94.6014,48.3426 L95.6014,47.3426 L95.6014,37.8566 L94.6014,36.8566 L83.0904,36.8566 Z M84.0914,38.8566 L93.6014,38.8566 L93.6014,46.3426 L84.0914,46.3426 L84.0914,38.8566 Z" id="Fill-6" fill="#21CEDB" sketch:type="MSShapeGroup"></path>
                <g id="Group-40" transform="translate(33.000000, 13.000000)">
                    <path d="M59.3008,88.999 C59.3008,95.626 53.9278,100.999 47.3008,100.999 L15.3008,100.999 C8.6738,100.999 3.3008,95.626 3.3008,88.999 L3.3008,13.135 C3.3008,6.507 8.6738,1.135 15.3008,1.135 L47.3008,1.135 C53.9278,1.135 59.3008,6.507 59.3008,13.135 L59.3008,88.999 Z" id="Fill-7" fill="#E8FBFD" sketch:type="MSShapeGroup"></path>
                    <g id="Group-11">
                        <mask id="mask-2" sketch:name="Clip 10" fill="white">
                            <use xlink:href="#path-1"></use>
                        </mask>
                        <g id="Clip-10"></g>
                        <path d="M15.3008,2.1348 C9.2358,2.1348 4.3008,7.0698 4.3008,13.1348 L4.3008,88.9988 C4.3008,95.0648 9.2358,99.9988 15.3008,99.9988 L47.3008,99.9988 C53.3658,99.9988 58.3008,95.0648 58.3008,88.9988 L58.3008,13.1348 C58.3008,7.0698 53.3658,2.1348 47.3008,2.1348 L15.3008,2.1348 Z M47.3008,101.9988 L15.3008,101.9988 C8.1328,101.9988 2.3008,96.1668 2.3008,88.9988 L2.3008,13.1348 C2.3008,5.9668 8.1328,0.1348 15.3008,0.1348 L47.3008,0.1348 C54.4688,0.1348 60.3008,5.9668 60.3008,13.1348 L60.3008,88.9988 C60.3008,96.1668 54.4688,101.9988 47.3008,101.9988 L47.3008,101.9988 Z" id="Fill-9" fill="#21CEDB" sketch:type="MSShapeGroup" mask="url(#mask-2)"></path>
                    </g>
                    <path d="M47.3008,1.1348 L15.3008,1.1348 C8.6738,1.1348 3.3008,6.5068 3.3008,13.1348 L3.3008,17.6068 L59.3008,17.6068 L59.3008,13.1348 C59.3008,6.5068 53.9278,1.1348 47.3008,1.1348" id="Fill-12" fill="#ACEFF9" sketch:type="MSShapeGroup"></path>
                    <g id="Group-16">
                        <mask id="mask-4" sketch:name="Clip 15" fill="white">
                            <use xlink:href="#path-3"></use>
                        </mask>
                        <g id="Clip-15"></g>
                        <path d="M4.3008,16.6064 L58.3008,16.6064 L58.3008,13.1344 C58.3008,7.0694 53.3658,2.1344 47.3008,2.1344 L15.3008,2.1344 C9.2358,2.1344 4.3008,7.0694 4.3008,13.1344 L4.3008,16.6064 Z M59.3008,18.6064 L3.3008,18.6064 L2.3008,17.6064 L2.3008,13.1344 C2.3008,5.9664 8.1328,0.1344 15.3008,0.1344 L47.3008,0.1344 C54.4688,0.1344 60.3008,5.9664 60.3008,13.1344 L60.3008,17.6064 L59.3008,18.6064 Z" id="Fill-14" fill="#21CEDB" sketch:type="MSShapeGroup" mask="url(#mask-4)"></path>
                    </g>
                    <path d="M47.3008,101 L15.3008,101 C8.6738,101 3.3008,95.628 3.3008,89 L3.3008,83.528 L59.3008,83.528 L59.3008,89 C59.3008,95.628 53.9278,101 47.3008,101" id="Fill-17" fill="#ACEFF9" sketch:type="MSShapeGroup"></path>
                    <g id="Group-21">
                        <mask id="mask-6" sketch:name="Clip 20" fill="white">
                            <use xlink:href="#path-5"></use>
                        </mask>
                        <g id="Clip-20"></g>
                        <path d="M4.3008,84.5283 L4.3008,89.0003 C4.3008,95.0653 9.2358,100.0003 15.3008,100.0003 L47.3008,100.0003 C53.3658,100.0003 58.3008,95.0653 58.3008,89.0003 L58.3008,84.5283 L4.3008,84.5283 Z M47.3008,102.0003 L15.3008,102.0003 C8.1328,102.0003 2.3008,96.1683 2.3008,89.0003 L2.3008,83.5283 L3.3008,82.5283 L59.3008,82.5283 L60.3008,83.5283 L60.3008,89.0003 C60.3008,96.1683 54.4688,102.0003 47.3008,102.0003 L47.3008,102.0003 Z" id="Fill-19" fill="#21CEDB" sketch:type="MSShapeGroup" mask="url(#mask-6)"></path>
                    </g>
                    <path d="M46.2197,44.3555 C46.2197,52.5955 39.5397,59.2745 31.3007,59.2745 C23.0617,59.2745 16.3817,52.5955 16.3817,44.3555 C16.3817,36.1165 23.0617,29.4365 31.3007,29.4365 C39.5397,29.4365 46.2197,36.1165 46.2197,44.3555" id="Fill-22" fill="#FFFFFF" sketch:type="MSShapeGroup"></path>
                    <path d="M31.3008,29.9365 C23.3508,29.9365 16.8818,36.4055 16.8818,44.3555 C16.8818,52.3055 23.3508,58.7745 31.3008,58.7745 C39.2508,58.7745 45.7198,52.3055 45.7198,44.3555 C45.7198,36.4055 39.2508,29.9365 31.3008,29.9365 M31.3008,59.7745 C22.7988,59.7745 15.8818,52.8575 15.8818,44.3555 C15.8818,35.8535 22.7988,28.9365 31.3008,28.9365 C39.8028,28.9365 46.7198,35.8535 46.7198,44.3555 C46.7198,52.8575 39.8028,59.7745 31.3008,59.7745" id="Fill-24" fill="#21CEDB" sketch:type="MSShapeGroup"></path>
                    <path d="M36.9805,92.2646 C36.9805,95.4006 34.4375,97.9436 31.3005,97.9436 C28.1655,97.9436 25.6225,95.4006 25.6225,92.2646 C25.6225,89.1276 28.1655,86.5846 31.3005,86.5846 C34.4375,86.5846 36.9805,89.1276 36.9805,92.2646" id="Fill-26" fill="#6AE3F2" sketch:type="MSShapeGroup"></path>
                    <path d="M31.3008,87.085 C28.4458,87.085 26.1218,89.408 26.1218,92.265 C26.1218,95.12 28.4458,97.443 31.3008,97.443 C34.1568,97.443 36.4808,95.12 36.4808,92.265 C36.4808,89.408 34.1568,87.085 31.3008,87.085 M31.3008,98.443 C27.8938,98.443 25.1218,95.672 25.1218,92.265 C25.1218,88.857 27.8938,86.085 31.3008,86.085 C34.7078,86.085 37.4808,88.857 37.4808,92.265 C37.4808,95.672 34.7078,98.443 31.3008,98.443" id="Fill-28" fill="#21CEDB" sketch:type="MSShapeGroup"></path>
                    <path d="M35.5781,46.9648 L35.5781,36.5788 L27.0231,36.5788 L27.0231,46.9648 L22.6191,46.9648 L31.3021,54.3568 L39.9821,46.9648 L35.5781,46.9648 Z" id="Fill-30" fill="#6AE3F2" sketch:type="MSShapeGroup"></path>
                    <path d="M23.9775,47.4648 L31.3015,53.6998 L38.6235,47.4648 L35.5785,47.4648 L35.0785,46.9648 L35.0785,37.0788 L27.5235,37.0788 L27.5235,46.9648 L27.0235,47.4648 L23.9775,47.4648 Z M30.9775,54.7368 L22.2945,47.3458 L22.6195,46.4648 L26.5235,46.4648 L26.5235,36.5788 L27.0235,36.0788 L35.5785,36.0788 L36.0785,36.5788 L36.0785,46.4648 L39.9825,46.4648 L40.3065,47.3458 L31.6255,54.7368 L30.9775,54.7368 Z" id="Fill-32" fill="#21CEDB" sketch:type="MSShapeGroup"></path>
                    <mask id="mask-8" sketch:name="Clip 35" fill="white">
                        <use xlink:href="#path-7"></use>
                    </mask>
                    <g id="Clip-35"></g>
                    <path d="M44.049,9.87 L26.33,9.87 L26.33,8.87 L44.049,8.87 L44.049,9.87 Z" id="Fill-34" fill="#21CEDB" sketch:type="MSShapeGroup" mask="url(#mask-8)"></path>
                    <path d="M22.749,9.3701 C22.749,10.5281 21.81,11.4681 20.651,11.4681 C19.492,11.4681 18.553,10.5281 18.553,9.3701 C18.553,8.2121 19.492,7.2721 20.651,7.2721 C21.81,7.2721 22.749,8.2121 22.749,9.3701" id="Fill-36" fill="#21CEDB" sketch:type="MSShapeGroup" mask="url(#mask-8)"></path>
                    <path d="M46.9004,71.0557 C46.9004,72.5357 45.7014,73.7377 44.2204,73.7377 C42.7384,73.7377 41.5394,72.5357 41.5394,71.0557 C41.5394,69.5757 42.7384,68.3737 44.2204,68.3737 C45.7014,68.3737 46.9004,69.5757 46.9004,71.0557" id="Fill-37" fill="#6AE3F2" sketch:type="MSShapeGroup" mask="url(#mask-8)"></path>
                    <path d="M33.9814,71.0557 C33.9814,72.5357 32.7824,73.7377 31.3014,73.7377 C29.8194,73.7377 28.6204,72.5357 28.6204,71.0557 C28.6204,69.5757 29.8194,68.3737 31.3014,68.3737 C32.7824,68.3737 33.9814,69.5757 33.9814,71.0557" id="Fill-38" fill="#6AE3F2" sketch:type="MSShapeGroup" mask="url(#mask-8)"></path>
                    <path d="M21.0625,71.0557 C21.0625,72.5357 19.8635,73.7377 18.3825,73.7377 C16.9005,73.7377 15.7015,72.5357 15.7015,71.0557 C15.7015,69.5757 16.9005,68.3737 18.3825,68.3737 C19.8635,68.3737 21.0625,69.5757 21.0625,71.0557" id="Fill-39" fill="#6AE3F2" sketch:type="MSShapeGroup" mask="url(#mask-8)"></path>
                </g>
            </g>
        </g>
    </g>
</svg>