<?xml version="1.0" encoding="UTF-8" standalone="no"?>
<svg width="128px" height="128px" viewBox="0 0 128 128" version="1.1" xmlns="http://www.w3.org/2000/svg" xmlns:xlink="http://www.w3.org/1999/xlink" xmlns:sketch="http://www.bohemiancoding.com/sketch/ns">
    <!-- Generator: Sketch 3.4 (15588) - http://www.bohemiancoding.com/sketch -->
    <title>Shoes</title>
    <desc>Created with Sketch.</desc>
    <defs>
        <path id="path-1" d="M0,0.508 L113.739,0.508 L113.739,50 L0,50 L0,0.508 Z"></path>
    </defs>
    <g id="Icons" stroke="none" stroke-width="1" fill="none" fill-rule="evenodd" sketch:type="MSPage">
        <g id="128" sketch:type="MSArtboardGroup">
            <g id="Shoes" sketch:type="MSLayerGroup">
                <rect id="Rectangle-3" fill-opacity="0" fill="#D8D8D8" sketch:type="MSShapeGroup" x="0" y="0" width="128" height="128"></rect>
                <path d="M78.2368,44.1758 C78.2368,44.1758 82.2778,45.6628 84.2368,49.6758 C85.7368,52.7468 92.2938,55.6278 94.2368,56.2468 C99.7368,57.9968 107.5338,53.6458 110.1318,51.9758 C111.8818,50.8508 109.7368,44.0068 112.9868,43.1758 C113.4828,43.0498 114.6368,43.6748 115.1748,48.4968 C115.4208,50.6988 117.2058,56.6278 117.7368,58.5798 C118.9478,63.0248 118.9868,67.0168 118.9868,72.4688 C118.9868,75.7468 117.6548,81.1518 117.6548,81.6638 C117.6548,83.2898 118.1628,84.0448 118.1628,84.6638 C118.1628,87.6638 117.2368,87.9968 117.2368,87.9968 L28.2368,86.4968 C20.2368,85.7468 14.0978,85.0528 8.5198,81.4318 C8.2188,79.5278 6.7988,71.8528 10.4868,69.2468 C15.9978,65.3538 25.3758,64.3738 25.3758,64.3738" id="Fill-1" fill="#E8FBFD" sketch:type="MSShapeGroup"></path>
                <path d="M117.4028,89 L117.2198,88.997 L28.2198,87.497 C20.8568,86.81 13.9738,86.164 7.9758,82.271 L7.6018,82.027 L7.4898,81.327 C7.0888,78.844 5.8648,71.288 9.9098,68.431 C15.5688,64.432 24.8778,63.421 25.2718,63.38 L25.4798,65.368 C25.3878,65.378 16.2928,66.369 11.0638,70.063 C9.0768,71.468 8.5288,75.09 9.4358,80.829 C14.5388,84.01 20.0208,84.723 28.3298,85.501 L116.8138,86.99 C116.9478,86.719 117.1628,86.063 117.1628,84.664 C117.1628,84.569 117.0978,84.348 117.0368,84.133 C116.8758,83.575 116.6548,82.812 116.6548,81.664 C116.6548,81.432 116.7218,81.082 116.9338,80.015 C117.3018,78.164 117.9868,74.72 117.9868,72.469 C117.9868,66.785 117.9278,63.086 116.7718,58.843 C116.6648,58.449 116.5068,57.895 116.3208,57.24 C115.5498,54.535 114.3858,50.446 114.1798,48.608 C113.8338,45.49 113.2548,44.499 113.0278,44.221 C112.1508,44.657 112.0278,46.313 111.9638,48.41 C111.9048,50.367 111.8528,52.058 110.6728,52.816 C108.9848,53.901 100.2498,59.208 93.9338,57.2 C92.2568,56.666 85.1018,53.727 83.3388,50.114 C81.5888,46.53 77.9258,45.127 77.8888,45.113 L78.5828,43.237 C78.7618,43.304 83.0248,44.913 85.1348,49.237 C86.3798,51.783 92.3678,54.602 94.5408,55.294 C100.1158,57.073 108.6378,51.747 109.5908,51.135 C109.8878,50.88 109.9358,49.296 109.9648,48.35 C110.0388,45.91 110.1318,42.874 112.7388,42.207 C113.1798,42.096 113.6538,42.192 114.0728,42.48 C115.1208,43.207 115.8058,45.139 116.1688,48.387 C116.3548,50.059 117.5378,54.212 118.2438,56.692 C118.4328,57.355 118.5928,57.919 118.7018,58.317 C119.9868,63.034 119.9868,67.406 119.9868,72.469 C119.9868,74.916 119.3038,78.352 118.8958,80.404 C118.7828,80.974 118.6658,81.563 118.6538,81.702 C118.6548,82.528 118.8158,83.086 118.9578,83.578 C119.0628,83.942 119.1628,84.286 119.1628,84.664 C119.1628,88.006 118.0518,88.767 117.5758,88.938 L117.4028,89 Z" id="Fill-3" fill="#21CEDB" sketch:type="MSShapeGroup"></path>
                <path d="M78.2368,44.1758 C82.9868,46.1758 84.2368,49.6758 84.2368,49.6758 C84.7978,50.8238 86.0668,51.9468 87.5358,52.9338 C88.7918,52.6458 89.2168,52.5618 89.6978,51.8388 C90.7428,50.2728 86.8388,42.2448 84.2118,40.5788 C81.0608,38.5808 72.3538,42.3058 70.3618,44.3688 C70.1688,44.5698 70.2578,44.8998 70.3408,45.1808 C74.2738,44.1868 77.1878,43.7348 78.2368,44.1758" id="Fill-5" fill="#6AE3F2" sketch:type="MSShapeGroup"></path>
                <g id="Group-9" transform="translate(7.000000, 39.000000)">
                    <mask id="mask-2" sketch:name="Clip 8" fill="white">
                        <use xlink:href="#path-1"></use>
                    </mask>
                    <g id="Clip-8"></g>
                    <path d="M70.0532,4.5068 C70.6472,4.5068 71.0972,4.5738 71.4312,4.7148 C76.3272,6.7768 77.6542,10.3568 77.7072,10.5078 C78.1322,11.3698 79.1232,12.3578 80.6362,13.3978 C81.7152,13.1488 81.9462,13.0668 82.2822,12.5628 C82.3162,12.5098 82.4772,12.1988 82.2582,11.1658 C81.6652,8.3668 78.8772,3.2278 76.9442,2.0008 C76.4272,1.6738 75.6882,1.5078 74.7442,1.5078 C71.1872,1.5078 65.7152,3.9238 63.9272,5.5198 C66.6912,4.8478 68.7492,4.5068 70.0532,4.5068 L70.0532,4.5068 Z M80.5172,14.4508 L80.2562,14.3488 C78.4952,13.1638 77.3272,12.0028 76.7872,10.8958 C76.7542,10.8128 75.5122,7.5188 71.0422,5.6368 C70.9022,5.5768 70.6152,5.5068 70.0532,5.5068 C68.7232,5.5068 66.5052,5.8968 63.4622,6.6648 L62.9952,6.7828 L62.8602,6.3198 C62.7702,6.0118 62.6022,5.4358 63.0022,5.0218 C64.6832,3.2798 70.7402,0.5078 74.7442,0.5078 C75.8802,0.5078 76.8002,0.7268 77.4792,1.1568 C79.6702,2.5458 82.5792,7.8568 83.2372,10.9578 C83.4502,11.9668 83.4092,12.6718 83.1142,13.1158 C82.5332,13.9878 81.9682,14.1178 80.7282,14.4028 L80.5172,14.4508 Z" id="Fill-7" fill="#21CEDB" sketch:type="MSShapeGroup" mask="url(#mask-2)"></path>
                </g>
                <path d="M25.3755,64.374 C25.3755,64.374 19.7365,67.039 20.9865,81.414 C16.3115,81.914 11.2835,80.307 8.0005,78.747" id="Fill-10" fill="#E8FBFD" sketch:type="MSShapeGroup"></path>
                <path d="M19.1782,82.0078 C14.2802,82.0078 9.6802,80.0988 7.7862,79.1978 L8.2152,78.2958 C10.2092,79.2418 15.3052,81.3508 20.4482,80.9608 C19.3532,66.8378 24.9212,64.0348 25.1612,63.9218 L25.5892,64.8258 L25.3752,64.3738 L25.5932,64.8238 C25.5392,64.8508 20.2882,67.6048 21.4852,81.3708 L21.5272,81.8598 L21.0402,81.9108 C20.4182,81.9778 19.7952,82.0078 19.1782,82.0078" id="Fill-12" fill="#21CEDB" sketch:type="MSShapeGroup"></path>
                <path d="M117.7368,58.5801 C117.2058,56.6281 115.4208,50.6991 115.1738,48.4971 C114.6368,43.6751 113.4828,43.0501 112.9868,43.1761 C109.7368,44.0071 111.8818,50.8511 110.1318,51.9761 C107.5338,53.6451 99.7368,57.9971 94.2368,56.2471 C92.2938,55.6281 85.7368,52.7471 84.2368,49.6761 L22.9228,68.3181 C22.9228,68.3181 23.8638,66.5241 24.9478,64.6511 C23.6578,65.6181 19.9488,69.4781 20.9868,81.4141 L21.0578,78.2461 C21.0578,78.2461 35.2228,79.0591 40.0488,79.0591 C49.9218,79.0591 70.9068,77.6371 88.1118,77.4341 C101.9638,77.2721 113.0608,77.2461 118.2958,77.2461 C118.3518,77.2461 118.4088,77.2631 118.4668,77.2761 C118.7448,75.6491 118.9868,73.8661 118.9868,72.4691 C118.9868,67.0171 118.9478,63.0241 117.7368,58.5801" id="Fill-14" fill="#E8FBFD" sketch:type="MSShapeGroup"></path>
                <path d="M21.3071,77.7598 C23.1241,77.8628 35.6201,78.5598 40.0491,78.5598 C44.6701,78.5598 51.6461,78.2508 59.7231,77.8938 C68.7431,77.4938 78.9651,77.0418 88.1061,76.9348 C102.3711,76.7678 113.6311,76.7468 118.0491,76.7458 C118.3431,74.9408 118.4871,73.5378 118.4871,72.4688 C118.4871,67.5138 118.4871,63.2348 117.2541,58.7118 C117.1471,58.3178 116.9891,57.7598 116.8011,57.1038 C116.0361,54.4138 114.8781,50.3498 114.6771,48.5528 C114.1561,43.8718 113.1141,43.6608 113.1041,43.6608 C111.5961,44.0478 111.5291,46.2578 111.4641,48.3958 C111.4091,50.2108 111.3611,51.7798 110.4021,52.3968 C109.1651,53.1908 102.7141,57.1548 97.0661,57.1548 C95.9871,57.1548 94.9841,57.0098 94.0851,56.7238 C92.7781,56.3068 86.0021,53.5758 83.9951,50.2728 L22.6271,68.9308 C21.8711,70.8888 21.2751,73.7188 21.3071,77.7598 L21.3071,77.7598 Z M20.4891,81.4568 C19.4501,69.5198 23.0511,65.4468 24.6481,64.2508 L26.6061,62.7828 L25.3801,64.9018 C24.8271,65.8588 24.3071,66.8008 23.9341,67.4888 L84.4991,49.0728 L84.6861,49.4558 C86.0141,52.1748 92.0811,55.0358 94.3881,55.7708 C95.1891,56.0258 96.0901,56.1548 97.0661,56.1548 C102.4341,56.1548 108.6661,52.3228 109.8611,51.5548 C110.3771,51.2228 110.4231,49.7048 110.4641,48.3648 C110.5341,46.0928 110.6201,43.2648 112.8631,42.6918 C113.7751,42.4618 115.0891,43.2178 115.6711,48.4418 C115.8631,50.1558 117.0521,54.3328 117.7631,56.8288 C117.9521,57.4898 118.1111,58.0518 118.2191,58.4488 C119.4871,63.1008 119.4871,67.4428 119.4871,72.4688 C119.4871,73.6818 119.3151,75.2808 118.9601,77.3608 L118.8701,77.8838 L118.3541,77.7638 C114.0581,77.7408 102.6501,77.7648 88.1181,77.9348 C78.9931,78.0418 68.7791,78.4938 59.7671,78.8928 C51.6781,79.2498 44.6921,79.5598 40.0491,79.5598 C35.7871,79.5598 24.1431,78.9198 21.5461,78.7748 L21.4871,81.4258 L20.4891,81.4568 Z" id="Fill-16" fill="#21CEDB" sketch:type="MSShapeGroup"></path>
                <path d="M117.7368,58.5801 C117.2058,56.6281 115.4208,50.6991 115.1738,48.4971 C114.6368,43.6751 113.4828,43.0501 112.9868,43.1761 C109.7368,44.0071 111.8818,50.8511 110.1318,51.9761 C107.5338,53.6451 99.7368,57.9971 94.2368,56.2471 C92.2938,55.6281 85.7368,52.7471 84.2368,49.6761 L22.9228,68.3181 C22.9228,68.3181 23.8638,66.5241 24.9478,64.6511 C23.6578,65.6181 19.9488,69.4781 20.9868,81.4141 L21.0578,78.2461 C21.0578,78.2461 35.2228,79.0591 40.0488,79.0591 C49.9218,79.0591 70.9068,77.6371 88.1118,77.4341 C101.9638,77.2721 113.0608,77.2461 118.2958,77.2461 C118.3518,77.2461 118.4088,77.2631 118.4668,77.2761 C118.7448,75.6491 118.9868,73.8661 118.9868,72.4691 C118.9868,67.0171 118.9478,63.0241 117.7368,58.5801" id="Fill-18" fill="#E8FBFD" sketch:type="MSShapeGroup"></path>
                <path d="M21.3071,77.7598 C23.1241,77.8628 35.6201,78.5598 40.0491,78.5598 C44.6701,78.5598 51.6461,78.2508 59.7231,77.8938 C68.7431,77.4938 78.9651,77.0418 88.1061,76.9348 C102.3711,76.7678 113.6311,76.7468 118.0491,76.7458 C118.3431,74.9408 118.4871,73.5378 118.4871,72.4688 C118.4871,67.5138 118.4871,63.2348 117.2541,58.7118 C117.1471,58.3178 116.9891,57.7598 116.8011,57.1038 C116.0361,54.4138 114.8781,50.3498 114.6771,48.5528 C114.1561,43.8718 113.1141,43.6608 113.1041,43.6608 C111.5961,44.0478 111.5291,46.2578 111.4641,48.3958 C111.4091,50.2108 111.3611,51.7798 110.4021,52.3968 C109.1651,53.1908 102.7141,57.1548 97.0661,57.1548 C95.9871,57.1548 94.9841,57.0098 94.0851,56.7238 C92.7781,56.3068 86.0021,53.5758 83.9951,50.2728 L22.6271,68.9308 C21.8711,70.8888 21.2751,73.7188 21.3071,77.7598 L21.3071,77.7598 Z M20.4891,81.4568 C19.4501,69.5198 23.0511,65.4468 24.6481,64.2508 L26.6061,62.7828 L25.3801,64.9018 C24.8271,65.8588 24.3071,66.8008 23.9341,67.4888 L84.4991,49.0728 L84.6861,49.4558 C86.0141,52.1748 92.0811,55.0358 94.3881,55.7708 C95.1891,56.0258 96.0901,56.1548 97.0661,56.1548 C102.4341,56.1548 108.6661,52.3228 109.8611,51.5548 C110.3771,51.2228 110.4231,49.7048 110.4641,48.3648 C110.5341,46.0928 110.6201,43.2648 112.8631,42.6918 C113.7751,42.4618 115.0891,43.2178 115.6711,48.4418 C115.8631,50.1558 117.0521,54.3328 117.7631,56.8288 C117.9521,57.4898 118.1111,58.0518 118.2191,58.4488 C119.4871,63.1008 119.4871,67.4428 119.4871,72.4688 C119.4871,73.6818 119.3151,75.2808 118.9601,77.3608 L118.8701,77.8838 L118.3541,77.7638 C114.0581,77.7408 102.6501,77.7648 88.1181,77.9348 C78.9931,78.0418 68.7791,78.4938 59.7671,78.8928 C51.6781,79.2498 44.6921,79.5598 40.0491,79.5598 C35.7871,79.5598 24.1431,78.9198 21.5461,78.7748 L21.4871,81.4258 L20.4891,81.4568 Z" id="Fill-20" fill="#21CEDB" sketch:type="MSShapeGroup"></path>
                <path d="M74.2661,54.5625 L73.4021,53.0915 L74.2631,52.5855 L75.1271,54.0565 L74.2661,54.5625 Z M75.7871,57.1495 L74.7731,55.4255 L75.6341,54.9175 L76.6481,56.6415 L75.7871,57.1495 Z M77.3071,59.7355 L76.2931,58.0105 L77.1551,57.5045 L78.1681,59.2295 L77.3071,59.7355 Z M78.8281,62.3215 L77.8141,60.5965 L78.6751,60.0905 L79.6891,61.8155 L78.8281,62.3215 Z M80.3471,64.9075 L79.3341,63.1835 L80.1961,62.6775 L81.2081,64.4015 L80.3471,64.9075 Z M81.8681,67.4945 L80.8541,65.7695 L81.7151,65.2635 L82.7291,66.9885 L81.8681,67.4945 Z M83.3881,70.0805 L82.3741,68.3555 L83.2361,67.8495 L84.2491,69.5745 L83.3881,70.0805 Z M84.9091,72.6665 L83.8951,70.9435 L84.7561,70.4355 L85.7701,72.1595 L84.9091,72.6665 Z M86.4271,75.2525 L85.4141,73.5285 L86.2781,73.0225 L87.2901,74.7475 L86.4271,75.2525 Z M88.2971,77.9325 L88.2091,77.4795 L87.8591,77.6855 L86.9351,76.1155 L87.7961,75.6075 L89.1561,77.9185 L88.2971,77.9325 Z" id="Fill-22" fill="#6CE4F2" sketch:type="MSShapeGroup"></path>
                <path d="M64.9429,57.6973 L63.9289,55.9723 L64.7909,55.4673 L65.8039,57.1913 L64.9429,57.6973 Z M66.4639,60.2833 L65.4499,58.5583 L66.3109,58.0523 L67.3249,59.7773 L66.4639,60.2833 Z M67.9839,62.8703 L66.9699,61.1463 L67.8319,60.6383 L68.8449,62.3623 L67.9839,62.8703 Z M69.5039,65.4553 L68.4909,63.7313 L69.3519,63.2253 L70.3649,64.9493 L69.5039,65.4553 Z M71.0239,68.0423 L70.0099,66.3173 L70.8719,65.8113 L71.8849,67.5363 L71.0239,68.0423 Z M72.5449,70.6283 L71.5309,68.9033 L72.3919,68.3973 L73.4059,70.1223 L72.5449,70.6283 Z M74.0649,73.2153 L73.0509,71.4913 L73.9129,70.9833 L74.9259,72.7073 L74.0649,73.2153 Z M75.5859,75.8013 L74.5719,74.0763 L75.4329,73.5703 L76.4469,75.2953 L75.5859,75.8013 Z M76.8429,77.9403 L76.0919,76.6623 L76.9539,76.1563 L77.7049,77.4343 L76.8429,77.9403 Z" id="Fill-24" fill="#6CE4F2" sketch:type="MSShapeGroup"></path>
                <path d="M57.6079,78.7217 L57.1009,77.8597 L57.9619,77.3537 L58.4689,78.2157 L57.6079,78.7217 Z" id="Fill-26" fill="#6CE4F2" sketch:type="MSShapeGroup"></path>
                <path d="M49.2075,64.4326 L48.2215,62.7536 L49.0825,62.2476 L50.0685,63.9266 L49.2075,64.4326 Z M50.6875,66.9516 L49.7005,65.2726 L50.5615,64.7646 L51.5495,66.4436 L50.6875,66.9516 Z M52.1675,69.4676 L51.1815,67.7886 L52.0425,67.2836 L53.0285,68.9616 L52.1675,69.4676 Z M53.6475,71.9866 L52.6605,70.3076 L53.5215,69.7996 L54.5095,71.4786 L53.6475,71.9866 Z M55.1275,74.5026 L54.1415,72.8246 L55.0025,72.3186 L55.9885,73.9966 L55.1275,74.5026 Z M56.6075,77.0206 L55.6215,75.3416 L56.4825,74.8356 L57.4695,76.5146 L56.6075,77.0206 Z" id="Fill-28" fill="#6CE4F2" sketch:type="MSShapeGroup"></path>
                <path d="M47.7271,61.915 L47.2201,61.053 L48.0811,60.547 L48.5881,61.409 L47.7271,61.915 Z" id="Fill-30" fill="#6CE4F2" sketch:type="MSShapeGroup"></path>
                <path d="M60.4429,57.3994 L60.2599,57.0874 L61.1239,56.5824 L61.3059,56.8934 L60.4429,57.3994 Z M61.9639,59.9854 L60.9509,58.2604 L61.8119,57.7544 L62.8259,59.4794 L61.9639,59.9854 Z M63.4849,62.5724 L62.4709,60.8484 L63.3329,60.3404 L64.3459,62.0644 L63.4849,62.5724 Z M65.0049,65.1584 L63.9919,63.4334 L64.8529,62.9274 L65.8669,64.6524 L65.0049,65.1584 Z M66.5259,67.7444 L65.5119,66.0194 L66.3739,65.5134 L67.3869,67.2384 L66.5259,67.7444 Z M68.0459,70.3304 L67.0329,68.6064 L67.8939,68.1004 L68.9069,69.8244 L68.0459,70.3304 Z M69.5659,72.9174 L68.5519,71.1934 L69.4139,70.6854 L70.4269,72.4094 L69.5659,72.9174 Z M71.0869,75.5034 L70.0729,73.7784 L70.9339,73.2724 L71.9479,74.9974 L71.0869,75.5034 Z M72.6069,78.0884 L71.5929,76.3644 L72.4549,75.8584 L73.4679,77.5834 L72.6069,78.0884 Z" id="Fill-32" fill="#6CE4F2" sketch:type="MSShapeGroup"></path>
                <path d="M51.8022,61.6924 L50.7882,59.9674 L51.6502,59.4624 L52.6632,61.1864 L51.8022,61.6924 Z M53.3232,64.2784 L52.3092,62.5534 L53.1702,62.0474 L54.1842,63.7724 L53.3232,64.2784 Z M54.8422,66.8654 L53.8282,65.1414 L54.6902,64.6334 L55.7032,66.3574 L54.8422,66.8654 Z M56.3632,69.4514 L55.3492,67.7264 L56.2102,67.2204 L57.2242,68.9454 L56.3632,69.4514 Z M57.8832,72.0374 L56.8692,70.3124 L57.7312,69.8064 L58.7442,71.5314 L57.8832,72.0374 Z M59.4032,74.6234 L58.3902,72.8994 L59.2512,72.3934 L60.2642,74.1174 L59.4032,74.6234 Z M60.9232,77.2104 L59.9092,75.4854 L60.7712,74.9794 L61.7842,76.7044 L60.9232,77.2104 Z M61.7052,78.5404 L61.4302,78.0714 L62.2912,77.5654 L62.5672,78.0344 L61.7052,78.5404 Z" id="Fill-34" fill="#6CE4F2" sketch:type="MSShapeGroup"></path>
                <path d="M38.2559,64.7949 L37.7489,63.9329 L38.6109,63.4269 L39.1179,64.2889 L38.2559,64.7949 Z" id="Fill-36" fill="#6CE4F2" sketch:type="MSShapeGroup"></path>
                <path d="M39.7446,67.3271 L38.7516,65.6391 L39.6146,65.1331 L40.6066,66.8211 L39.7446,67.3271 Z M41.2336,69.8591 L40.2406,68.1711 L41.1026,67.6651 L42.0956,69.3531 L41.2336,69.8591 Z M42.7226,72.3921 L41.7296,70.7041 L42.5916,70.1981 L43.5846,71.8871 L42.7226,72.3921 Z M44.2116,74.9251 L43.2186,73.2361 L44.0806,72.7301 L45.0726,74.4191 L44.2116,74.9251 Z M45.7006,77.4591 L44.7076,75.7701 L45.5686,75.2631 L46.5616,76.9511 L45.7006,77.4591 Z" id="Fill-38" fill="#6CE4F2" sketch:type="MSShapeGroup"></path>
                <path d="M46.7036,79.1641 L46.1966,78.3021 L47.0576,77.7961 L47.5646,78.6581 L46.7036,79.1641 Z" id="Fill-40" fill="#6CE4F2" sketch:type="MSShapeGroup"></path>
                <path d="M84.2368,49.6758 L22.9228,68.3188 C22.9228,68.3188 26.4688,61.5388 27.7368,60.5788 C30.4868,58.4968 73.4868,42.1758 78.2368,44.1758 C82.9868,46.1758 84.2368,49.6758 84.2368,49.6758" id="Fill-42" fill="#E8FBFD" sketch:type="MSShapeGroup"></path>
                <path d="M77.0522,44.5059 C68.6932,44.5059 30.2042,59.3379 28.0382,60.9779 C27.2812,61.5509 25.3432,64.8699 23.9292,67.4889 L83.5402,49.3649 C83.0152,48.3769 81.4882,46.0869 78.0422,44.6369 C77.9022,44.5769 77.6142,44.5059 77.0522,44.5059 L77.0522,44.5059 Z M21.9262,69.1439 L22.4792,68.0869 C22.8472,67.3829 26.1162,61.1799 27.4352,60.1809 C30.4432,57.9029 68.8312,43.5059 77.0522,43.5059 C77.6472,43.5059 78.0972,43.5739 78.4312,43.7149 C83.3272,45.7769 84.6542,49.3569 84.7072,49.5079 L84.8842,50.0019 L21.9262,69.1439 Z" id="Fill-44" fill="#21CEDB" sketch:type="MSShapeGroup"></path>
                <path d="M76.0767,45.4072 L75.8317,46.3772 C76.4217,46.5252 76.9847,46.7072 77.5077,46.9152 L77.8777,45.9862 C77.7607,45.9392 77.6397,45.8932 77.5167,45.8482 C77.5047,45.8442 77.4907,45.8392 77.4777,45.8342 L77.4767,45.8342 C77.4747,45.8342 77.4727,45.8332 77.4717,45.8322 L77.4707,45.8322 C77.4687,45.8312 77.4667,45.8302 77.4647,45.8302 L77.4647,45.8292 C77.4577,45.8272 77.4507,45.8252 77.4447,45.8222 L77.4437,45.8222 C77.4417,45.8212 77.4397,45.8212 77.4377,45.8202 C77.4377,45.8202 77.4367,45.8202 77.4367,45.8192 C77.4347,45.8192 77.4327,45.8182 77.4307,45.8172 C77.4297,45.8162 77.4267,45.8162 77.4247,45.8152 C77.4197,45.8132 77.4157,45.8122 77.4107,45.8102 C77.4087,45.8092 77.4067,45.8082 77.4047,45.8082 L77.4037,45.8072 C77.4017,45.8072 77.3997,45.8062 77.3977,45.8052 L77.3967,45.8052 C77.3947,45.8042 77.3927,45.8032 77.3907,45.8032 L77.3897,45.8032 C77.3887,45.8032 77.3867,45.8022 77.3857,45.8012 L77.3847,45.8012 C77.3797,45.7992 77.3757,45.7982 77.3707,45.7962 L77.3697,45.7962 C77.3687,45.7952 77.3667,45.7952 77.3647,45.7942 C77.3637,45.7942 77.3637,45.7942 77.3627,45.7932 C77.3617,45.7932 77.3597,45.7922 77.3577,45.7922 C77.3577,45.7922 77.3567,45.7912 77.3557,45.7912 C77.3547,45.7912 77.3527,45.7902 77.3517,45.7902 C77.3507,45.7892 77.3497,45.7892 77.3497,45.7892 C77.3477,45.7882 77.3467,45.7882 77.3457,45.7872 L77.3437,45.7872 L77.3377,45.7842 L77.3367,45.7842 C77.3347,45.7832 77.3327,45.7832 77.3307,45.7822 C77.3297,45.7822 77.3297,45.7812 77.3287,45.7812 C77.3267,45.7812 77.3257,45.7802 77.3247,45.7802 C77.3237,45.7792 77.3227,45.7792 77.3217,45.7792 C77.3207,45.7782 77.3187,45.7782 77.3177,45.7772 L77.3157,45.7772 C77.3137,45.7762 77.3127,45.7762 77.3117,45.7752 C77.3107,45.7752 77.3097,45.7752 77.3087,45.7742 C77.3077,45.7742 77.3057,45.7732 77.3057,45.7732 C77.3047,45.7732 77.3037,45.7722 77.3027,45.7722 C77.3007,45.7712 77.2987,45.7712 77.2967,45.7702 L77.2957,45.7692 C77.2937,45.7692 77.2917,45.7682 77.2907,45.7682 C77.2897,45.7672 77.2887,45.7672 77.2877,45.7672 C77.2867,45.7662 77.2847,45.7662 77.2837,45.7652 C77.2827,45.7652 77.2817,45.7652 77.2807,45.7642 C77.2797,45.7642 77.2787,45.7632 77.2777,45.7632 C77.2767,45.7632 77.2757,45.7622 77.2747,45.7622 C77.2727,45.7622 77.2717,45.7612 77.2707,45.7612 L77.2677,45.7612 C77.2667,45.7602 77.2647,45.7602 77.2637,45.7592 C77.2637,45.7592 77.2627,45.7592 77.2617,45.7582 C77.2607,45.7582 77.2587,45.7572 77.2567,45.7562 C77.2547,45.7562 77.2537,45.7562 77.2527,45.7552 C77.2517,45.7552 77.2507,45.7552 77.2497,45.7542 C77.2487,45.7542 77.2467,45.7532 77.2457,45.7532 C77.2447,45.7532 77.2447,45.7522 77.2437,45.7522 C77.2427,45.7522 77.2407,45.7512 77.2397,45.7512 C77.2387,45.7512 77.2377,45.7502 77.2367,45.7502 C77.2357,45.7492 77.2347,45.7492 77.2337,45.7492 C77.2327,45.7482 77.2317,45.7482 77.2307,45.7482 C77.2297,45.7472 77.2277,45.7472 77.2267,45.7462 C77.2257,45.7462 77.2247,45.7462 77.2237,45.7452 C77.2227,45.7452 77.2197,45.7442 77.2177,45.7432 C77.2167,45.7432 77.2157,45.7422 77.2157,45.7422 C77.2137,45.7422 77.2127,45.7412 77.2117,45.7412 C77.2107,45.7412 77.2097,45.7402 77.2087,45.7402 C77.2077,45.7402 77.2067,45.7392 77.2047,45.7392 C77.2047,45.7382 77.2037,45.7382 77.2027,45.7382 C77.2007,45.7372 77.1997,45.7372 77.1987,45.7362 L77.1967,45.7362 C77.1947,45.7352 77.1937,45.7352 77.1917,45.7342 L77.1907,45.7342 C77.1887,45.7332 77.1867,45.7332 77.1857,45.7322 C77.1807,45.7302 77.1757,45.7282 77.1697,45.7262 L77.1677,45.7262 C77.1667,45.7252 77.1647,45.7252 77.1637,45.7242 L77.1617,45.7242 C77.1607,45.7232 77.1587,45.7232 77.1567,45.7222 L77.1557,45.7222 C77.1537,45.7212 77.1527,45.7212 77.1507,45.7202 L77.1497,45.7202 C77.1417,45.7182 77.1357,45.7162 77.1277,45.7132 L77.1267,45.7132 C77.1257,45.7122 77.1237,45.7122 77.1217,45.7112 L77.1207,45.7112 C77.1187,45.7102 77.1167,45.7102 77.1157,45.7092 L77.1147,45.7092 C77.1047,45.7062 77.0967,45.7022 77.0867,45.6992 L77.0857,45.6992 C77.0837,45.6982 77.0817,45.6982 77.0797,45.6972 C76.8507,45.6222 76.6137,45.5512 76.3657,45.4832 C76.3397,45.4752 76.3137,45.4692 76.2877,45.4622 C76.2857,45.4622 76.2837,45.4612 76.2817,45.4612 C76.2817,45.4602 76.2807,45.4602 76.2807,45.4602 C76.2787,45.4602 76.2767,45.4592 76.2747,45.4592 C76.2747,45.4592 76.2737,45.4592 76.2737,45.4582 C76.2637,45.4562 76.2537,45.4532 76.2427,45.4502 L76.2417,45.4502 C76.2397,45.4492 76.2377,45.4492 76.2357,45.4482 L76.2347,45.4482 C76.2327,45.4472 76.2307,45.4472 76.2287,45.4462 L76.2277,45.4462 C76.2257,45.4452 76.2237,45.4452 76.2227,45.4442 C76.2137,45.4422 76.2057,45.4402 76.1967,45.4382 C76.1967,45.4372 76.1957,45.4372 76.1957,45.4372 C76.1937,45.4372 76.1917,45.4362 76.1907,45.4362 C76.1897,45.4362 76.1887,45.4362 76.1877,45.4352 C76.1867,45.4352 76.1847,45.4352 76.1837,45.4342 C76.1827,45.4342 76.1817,45.4342 76.1807,45.4332 C76.1797,45.4332 76.1787,45.4332 76.1767,45.4322 L76.1747,45.4322 C76.1697,45.4302 76.1637,45.4292 76.1587,45.4282 L76.1557,45.4282 C76.1547,45.4272 76.1527,45.4272 76.1517,45.4272 C76.1507,45.4262 76.1497,45.4262 76.1487,45.4262 C76.1467,45.4252 76.1457,45.4252 76.1447,45.4252 C76.1427,45.4242 76.1417,45.4242 76.1407,45.4242 C76.1397,45.4242 76.1387,45.4232 76.1377,45.4232 C76.1367,45.4232 76.1357,45.4222 76.1347,45.4222 C76.1337,45.4222 76.1317,45.4212 76.1307,45.4212 C76.1297,45.4212 76.1277,45.4202 76.1267,45.4202 C76.1247,45.4202 76.1237,45.4192 76.1227,45.4192 C76.1197,45.4182 76.1187,45.4182 76.1167,45.4172 L76.1137,45.4172 C76.1117,45.4162 76.1107,45.4162 76.1087,45.4152 L76.1057,45.4152 C76.1037,45.4142 76.1027,45.4142 76.1017,45.4142 C76.0997,45.4132 76.0987,45.4132 76.0977,45.4132 C76.0977,45.4122 76.0957,45.4122 76.0947,45.4122 C76.0937,45.4112 76.0927,45.4112 76.0917,45.4112 C76.0897,45.4102 76.0877,45.4102 76.0867,45.4092 L76.0847,45.4092 C76.0817,45.4082 76.0787,45.4082 76.0767,45.4072 L76.0767,45.4072 Z M78.7907,46.3932 L78.3457,47.2892 C78.9097,47.5692 79.4227,47.8882 79.8717,48.2382 L80.4857,47.4492 C80.2537,47.2682 79.9907,47.0832 79.6937,46.8972 C79.6867,46.8932 79.6807,46.8892 79.6747,46.8862 C79.6737,46.8852 79.6727,46.8842 79.6707,46.8832 C79.6697,46.8822 79.6687,46.8822 79.6677,46.8812 L79.6667,46.8812 C79.6657,46.8802 79.6647,46.8792 79.6637,46.8792 C79.6637,46.8782 79.6627,46.8782 79.6627,46.8782 C79.6617,46.8772 79.6607,46.8772 79.6597,46.8762 C79.6577,46.8752 79.6567,46.8752 79.6557,46.8742 L79.6557,46.8732 C79.6527,46.8722 79.6507,46.8712 79.6477,46.8692 L79.6467,46.8682 C79.6457,46.8682 79.6447,46.8672 79.6437,46.8672 C79.6437,46.8662 79.6427,46.8662 79.6427,46.8662 L79.6407,46.8642 C79.6397,46.8642 79.6397,46.8642 79.6397,46.8632 C79.6397,46.8632 79.6387,46.8622 79.6377,46.8622 C79.6367,46.8622 79.6367,46.8612 79.6357,46.8612 L79.6347,46.8602 C79.6337,46.8602 79.6327,46.8592 79.6327,46.8592 C79.6317,46.8582 79.6307,46.8582 79.6307,46.8572 L79.6287,46.8572 C79.6267,46.8552 79.6237,46.8532 79.6217,46.8522 C79.6207,46.8522 79.6197,46.8512 79.6197,46.8512 C79.6187,46.8502 79.6187,46.8502 79.6177,46.8502 C79.6167,46.8492 79.6157,46.8492 79.6157,46.8482 L79.6137,46.8482 C79.6137,46.8472 79.6127,46.8472 79.6117,46.8462 C79.6117,46.8462 79.6107,46.8462 79.6107,46.8452 C79.6097,46.8452 79.6087,46.8442 79.6077,46.8442 C79.6077,46.8442 79.6077,46.8442 79.6067,46.8442 C79.6057,46.8442 79.6057,46.8432 79.6047,46.8432 L79.6037,46.8422 C79.6027,46.8412 79.6017,46.8412 79.6007,46.8402 C79.5997,46.8392 79.5977,46.8392 79.5977,46.8382 C79.5927,46.8352 79.5887,46.8322 79.5847,46.8302 L79.5837,46.8302 C79.5817,46.8282 79.5797,46.8272 79.5767,46.8252 C79.3367,46.6792 79.0747,46.5352 78.7907,46.3932 L78.7907,46.3932 Z M81.2347,48.1102 L81.0957,48.2492 L80.8887,48.3132 L80.9227,48.4212 L80.5247,48.8142 C80.7377,49.0292 80.8857,49.2102 80.9757,49.3332 L81.9157,49.0422 C81.9287,49.0382 81.9387,49.0342 81.9467,49.0322 L81.9477,49.0322 C81.9477,49.0312 81.9487,49.0312 81.9497,49.0312 C81.9507,49.0312 81.9517,49.0302 81.9527,49.0302 L81.9537,49.0302 L81.9537,49.0292 L81.9557,49.0292 C81.9567,49.0292 81.9567,49.0292 81.9577,49.0282 L81.9607,49.0282 L81.9627,49.0272 L81.9717,49.0242 C81.9717,49.0242 81.7787,48.6702 81.2917,48.1682 L81.2907,48.1682 C81.2877,48.1642 81.2837,48.1602 81.2797,48.1562 L81.2777,48.1542 C81.2777,48.1542 81.2777,48.1532 81.2767,48.1532 L81.2757,48.1522 C81.2747,48.1512 81.2747,48.1502 81.2737,48.1502 C81.2737,48.1492 81.2727,48.1492 81.2727,48.1482 C81.2717,48.1482 81.2717,48.1472 81.2707,48.1472 C81.2707,48.1472 81.2707,48.1462 81.2697,48.1462 C81.2697,48.1452 81.2687,48.1442 81.2677,48.1442 C81.2677,48.1432 81.2667,48.1432 81.2667,48.1432 C81.2667,48.1422 81.2657,48.1422 81.2657,48.1412 C81.2647,48.1412 81.2647,48.1402 81.2647,48.1402 C81.2637,48.1402 81.2637,48.1392 81.2637,48.1382 C81.2627,48.1382 81.2627,48.1382 81.2627,48.1372 C81.2617,48.1372 81.2607,48.1362 81.2607,48.1362 L81.2597,48.1362 C81.2587,48.1352 81.2587,48.1342 81.2577,48.1332 L81.2567,48.1332 C81.2567,48.1322 81.2557,48.1312 81.2547,48.1302 C81.2537,48.1292 81.2527,48.1282 81.2517,48.1282 L81.2517,48.1272 L81.2347,48.1102 Z M79.9327,48.6092 L78.0227,49.2012 L78.3197,50.1562 L79.7837,49.7022 C79.7867,49.7022 79.7897,49.7012 79.7927,49.7002 C80.0467,49.6212 80.2297,49.5642 80.2297,49.5642 L79.9327,48.6092 Z M77.0677,49.4982 L75.1577,50.0902 L75.4537,51.0452 C75.4537,51.0452 76.2387,50.8022 76.8027,50.6272 L77.3637,50.4532 L77.0677,49.4982 Z M74.2027,50.3862 L72.2927,50.9782 L72.5887,51.9332 L73.1007,51.7742 L73.1017,51.7742 L73.1047,51.7732 C73.1047,51.7732 73.1057,51.7732 73.1057,51.7722 L73.1077,51.7722 C73.1097,51.7712 73.1107,51.7712 73.1127,51.7712 L73.1127,51.7702 L73.1157,51.7702 L73.1187,51.7692 C73.1197,51.7682 73.1207,51.7682 73.1207,51.7682 L73.1237,51.7672 C73.1287,51.7652 73.1337,51.7642 73.1387,51.7622 L73.1397,51.7622 C73.1407,51.7612 73.1407,51.7612 73.1417,51.7612 L73.1427,51.7612 L73.1447,51.7612 C73.7097,51.5862 74.4987,51.3412 74.4987,51.3412 L74.2027,50.3862 Z M71.3377,51.2742 L69.4277,51.8672 L69.7227,52.8222 L71.6337,52.2292 L71.3377,51.2742 Z M68.4727,52.1632 L66.5607,52.7552 L66.8577,53.7102 L68.7677,53.1182 L68.4727,52.1632 Z M65.6057,53.0522 L63.6957,53.6432 L63.9927,54.5982 L65.4207,54.1562 L65.4397,54.1502 C65.4397,54.1492 65.4407,54.1492 65.4407,54.1492 L65.4497,54.1462 L65.4537,54.1452 C65.7137,54.0652 65.9027,54.0072 65.9027,54.0072 L65.6057,53.0522 Z M62.7407,53.9392 L60.8307,54.5322 L61.1267,55.4872 C61.1267,55.4872 61.3527,55.4172 61.6507,55.3252 L63.0367,54.8942 L62.7407,53.9392 Z M59.8757,54.8282 L57.9657,55.4202 L58.2617,56.3762 L58.6197,56.2642 L58.6327,56.2612 C58.6337,56.2612 58.6337,56.2602 58.6337,56.2602 L58.6357,56.2602 L58.6367,56.2602 L58.6397,56.2582 L58.6397,56.2582 L58.6407,56.2582 L58.6417,56.2582 L58.6437,56.2572 C58.6447,56.2572 58.6457,56.2562 58.6467,56.2562 L58.6497,56.2552 C58.6507,56.2552 58.6517,56.2552 58.6527,56.2542 L58.6547,56.2542 L58.6557,56.2532 L58.6577,56.2532 C58.6587,56.2532 58.6587,56.2522 58.6597,56.2522 L58.6617,56.2522 L58.6627,56.2512 L58.6637,56.2512 L58.6647,56.2512 C58.6647,56.2502 58.6657,56.2502 58.6657,56.2502 L58.6677,56.2502 L58.6767,56.2472 L58.6847,56.2442 L58.6857,56.2442 L58.6947,56.2412 L58.7037,56.2382 L58.7047,56.2382 C59.2687,56.0632 60.1717,55.7832 60.1717,55.7832 L59.8757,54.8282 Z M57.0107,55.7172 L55.0997,56.3082 L55.3957,57.2632 C55.3957,57.2632 55.8587,57.1202 56.3287,56.9742 L56.3297,56.9742 C56.3307,56.9732 56.3317,56.9732 56.3337,56.9732 L56.3347,56.9722 C56.3367,56.9722 56.3377,56.9712 56.3387,56.9712 L56.3417,56.9702 L56.3457,56.9702 L56.3467,56.9702 L56.3477,56.9692 L57.3057,56.6722 L57.0107,55.7172 Z M54.1447,56.6042 L52.2337,57.1972 L52.5307,58.1522 L54.4407,57.5602 L54.1447,56.6042 Z M51.2787,57.4932 L49.3687,58.0862 L49.6647,59.0412 L51.5757,58.4482 L51.2787,57.4932 Z M48.4137,58.3822 L46.5037,58.9732 L46.7997,59.9292 L48.7097,59.3372 L48.4137,58.3822 Z M45.5487,59.2702 L43.6387,59.8622 L43.9337,60.8172 L45.8447,60.2252 L45.5487,59.2702 Z M42.6827,60.1582 L40.7727,60.7512 L41.0687,61.7062 C41.0687,61.7062 41.5317,61.5622 42.0017,61.4172 L42.0077,61.4152 C42.0087,61.4152 42.0097,61.4142 42.0107,61.4142 L42.0147,61.4122 L42.0177,61.4122 L42.9787,61.1132 L42.6827,60.1582 Z M39.8177,61.0472 L37.9077,61.6392 L38.2027,62.5942 L39.7327,62.1202 L39.7327,62.1202 L39.7347,62.1192 L39.7357,62.1192 L39.7367,62.1192 C39.7377,62.1192 39.7377,62.1192 39.7387,62.1182 L39.7387,62.1182 L39.7397,62.1182 L39.7417,62.1172 L39.7427,62.1172 L39.7487,62.1152 C39.7597,62.1122 39.7697,62.1082 39.7807,62.1052 C39.9787,62.0442 40.1137,62.0022 40.1137,62.0022 L39.8177,61.0472 Z M36.9517,61.9352 L35.0417,62.5272 L35.3377,63.4822 C35.3377,63.4822 36.0837,63.2522 36.6427,63.0782 L36.6447,63.0782 C36.6477,63.0772 36.6507,63.0762 36.6537,63.0752 L36.6567,63.0742 L36.6567,63.0742 L36.6597,63.0732 C36.6607,63.0732 36.6607,63.0722 36.6617,63.0722 L36.6687,63.0702 L37.2477,62.8902 L36.9517,61.9352 Z M34.0867,62.8242 L32.1767,63.4162 L32.4727,64.3712 L33.0877,64.1802 C33.0897,64.1792 33.0907,64.1792 33.0927,64.1782 L33.0977,64.1782 L33.0987,64.1772 C33.0997,64.1772 33.1017,64.1762 33.1027,64.1762 L33.1057,64.1752 C33.1067,64.1752 33.1077,64.1752 33.1087,64.1742 C33.1107,64.1742 33.1127,64.1732 33.1157,64.1722 L33.1177,64.1722 L33.1197,64.1712 C33.6737,63.9992 34.3827,63.7792 34.3827,63.7792 L34.0867,62.8242 Z M31.2217,63.7122 L29.3107,64.3042 L29.6067,65.2602 L31.5167,64.6672 L31.2217,63.7122 Z M28.3557,64.6002 L26.4587,65.1882 L26.3267,65.1082 C26.0677,65.5332 25.8487,65.9002 25.6977,66.1562 C25.5537,66.3982 25.4717,66.5422 25.4717,66.5422 L26.8947,66.1002 C27.3477,65.9602 28.6517,65.5552 28.6517,65.5552 L28.3557,64.6002 Z M27.9497,62.5852 C27.7747,62.8392 27.5987,63.1032 27.4247,63.3682 L27.4247,63.3692 C27.4227,63.3712 27.4207,63.3742 27.4197,63.3772 C27.4187,63.3782 27.4177,63.3792 27.4167,63.3802 C27.4167,63.3812 27.4157,63.3822 27.4157,63.3822 C27.4147,63.3842 27.4127,63.3862 27.4117,63.3872 C27.4117,63.3882 27.4107,63.3882 27.4107,63.3892 C27.4097,63.3902 27.4097,63.3912 27.4087,63.3932 L27.4087,63.3932 C27.4067,63.3952 27.4057,63.3982 27.4037,63.4002 C27.4037,63.4012 27.4027,63.4022 27.4027,63.4022 C27.4017,63.4042 27.4007,63.4062 27.3997,63.4072 C27.3987,63.4082 27.3977,63.4092 27.3977,63.4102 C27.3967,63.4112 27.3967,63.4122 27.3957,63.4132 C27.3947,63.4142 27.3937,63.4162 27.3927,63.4172 C27.3927,63.4182 27.3917,63.4192 27.3907,63.4202 C27.3907,63.4212 27.3897,63.4222 27.3887,63.4232 C27.3887,63.4242 27.3887,63.4252 27.3877,63.4262 C27.3867,63.4272 27.3857,63.4282 27.3847,63.4292 C27.3837,63.4312 27.3837,63.4312 27.3827,63.4332 C27.3817,63.4342 27.3807,63.4352 27.3807,63.4362 C27.3797,63.4372 27.3797,63.4372 27.3797,63.4382 C27.3777,63.4392 27.3767,63.4412 27.3757,63.4432 C27.3757,63.4442 27.3747,63.4442 27.3747,63.4452 C27.3727,63.4472 27.3717,63.4492 27.3707,63.4502 C27.3707,63.4512 27.3707,63.4522 27.3697,63.4522 C27.3687,63.4542 27.3687,63.4552 27.3677,63.4572 C27.3667,63.4572 27.3667,63.4582 27.3667,63.4582 C27.3647,63.4602 27.3637,63.4622 27.3627,63.4642 C27.3627,63.4652 27.3617,63.4652 27.3617,63.4652 C27.3587,63.4692 27.3567,63.4722 27.3537,63.4772 L27.3537,63.4772 C27.3517,63.4792 27.3507,63.4812 27.3497,63.4842 L27.3487,63.4842 C27.3477,63.4862 27.3467,63.4882 27.3457,63.4892 C27.3457,63.4902 27.3447,63.4912 27.3447,63.4912 C27.3437,63.4932 27.3427,63.4952 27.3407,63.4972 L27.3407,63.4982 C27.3387,63.5002 27.3377,63.5022 27.3367,63.5042 L27.3357,63.5052 C27.3347,63.5072 27.3337,63.5092 27.3317,63.5112 C27.3307,63.5122 27.3287,63.5142 27.3277,63.5172 C27.1657,63.7662 27.0067,64.0152 26.8537,64.2582 L27.7007,64.7912 C28.0887,64.1742 28.4497,63.6232 28.7737,63.1522 L27.9497,62.5852 Z M29.9497,60.3932 C29.8577,60.4412 29.7777,60.4852 29.7117,60.5242 L29.7117,60.5242 L29.7107,60.5242 L29.7107,60.5252 L29.7097,60.5252 L29.7087,60.5252 C29.7087,60.5262 29.7087,60.5262 29.7077,60.5262 L29.7077,60.5262 C29.7077,60.5262 29.7067,60.5262 29.7067,60.5272 L29.7067,60.5272 C29.7057,60.5272 29.7057,60.5272 29.7057,60.5282 C29.7047,60.5282 29.7057,60.5272 29.7047,60.5282 C29.7037,60.5282 29.7027,60.5292 29.7017,60.5302 L29.7007,60.5302 L29.7007,60.5312 L29.6997,60.5312 L29.6997,60.5312 C29.6977,60.5322 29.6957,60.5332 29.6947,60.5342 C29.6597,60.5552 29.6287,60.5752 29.6007,60.5932 L29.6007,60.5942 L29.5997,60.5942 L29.5997,60.5952 L29.5987,60.5952 L29.5987,60.5952 L29.5977,60.5952 L29.5967,60.5952 L29.5967,60.5962 L29.5967,60.5962 L29.5957,60.5962 L29.5957,60.5972 L29.5947,60.5972 L29.5947,60.5972 L29.5937,60.5982 C29.5927,60.5982 29.5927,60.5992 29.5917,60.5992 L29.5917,60.5992 C29.5907,60.6002 29.5907,60.6002 29.5897,60.6002 L29.5897,60.6012 L29.5887,60.6012 C29.5887,60.6022 29.5877,60.6022 29.5877,60.6022 C29.5877,60.6022 29.5867,60.6022 29.5867,60.6032 C29.5857,60.6032 29.5857,60.6042 29.5847,60.6042 L29.5847,60.6042 C29.5837,60.6042 29.5837,60.6052 29.5837,60.6052 L29.5827,60.6052 C29.5827,60.6062 29.5817,60.6062 29.5817,60.6062 L29.5807,60.6072 L29.5797,60.6072 L29.5797,60.6082 C29.5787,60.6082 29.5787,60.6082 29.5787,60.6092 L29.5777,60.6092 L29.5767,60.6102 L29.5767,60.6102 L29.5757,60.6112 L29.5747,60.6112 C29.5747,60.6122 29.5737,60.6122 29.5737,60.6122 L29.5727,60.6132 C29.5727,60.6132 29.5717,60.6132 29.5717,60.6142 L29.5717,60.6142 C29.5707,60.6142 29.5707,60.6152 29.5697,60.6152 L29.5697,60.6152 L29.5687,60.6162 L29.5677,60.6162 C29.5677,60.6172 29.5667,60.6172 29.5667,60.6172 L29.5657,60.6182 C29.5657,60.6182 29.5647,60.6182 29.5647,60.6192 C29.5637,60.6192 29.5637,60.6202 29.5627,60.6202 C29.5597,60.6222 29.5567,60.6242 29.5547,60.6272 C29.5537,60.6272 29.5537,60.6272 29.5527,60.6282 C29.5517,60.6282 29.5517,60.6292 29.5507,60.6292 L29.5507,60.6292 C29.5507,60.6302 29.5497,60.6302 29.5497,60.6312 L29.5487,60.6312 C29.5487,60.6312 29.5477,60.6312 29.5477,60.6322 L29.5467,60.6322 L29.5457,60.6332 L29.5457,60.6332 C29.5447,60.6342 29.5447,60.6342 29.5437,60.6342 L29.5437,60.6352 C29.5427,60.6352 29.5427,60.6352 29.5417,60.6362 L29.5407,60.6362 L29.5397,60.6362 C29.5397,60.6372 29.5387,60.6372 29.5387,60.6382 C29.5377,60.6382 29.5377,60.6392 29.5367,60.6392 L29.5367,60.6392 C29.5357,60.6402 29.5357,60.6402 29.5347,60.6402 C29.5347,60.6412 29.5337,60.6412 29.5337,60.6422 C29.5277,60.6462 29.5217,60.6512 29.5157,60.6562 C29.5147,60.6572 29.5137,60.6572 29.5137,60.6582 C29.5137,60.6582 29.5127,60.6582 29.5127,60.6592 L29.5117,60.6592 C29.5117,60.6602 29.5107,60.6602 29.5107,60.6602 L29.5107,60.6612 C29.5097,60.6612 29.5097,60.6612 29.5087,60.6622 C29.5077,60.6622 29.5077,60.6632 29.5067,60.6632 L29.5067,60.6632 C29.5057,60.6642 29.5057,60.6642 29.5047,60.6652 C29.5037,60.6652 29.5037,60.6662 29.5027,60.6662 C29.5027,60.6672 29.5017,60.6672 29.5007,60.6682 C29.4927,60.6752 29.4847,60.6812 29.4757,60.6882 L29.4757,60.6892 C29.4747,60.6892 29.4747,60.6892 29.4737,60.6902 C29.4727,60.6912 29.4727,60.6912 29.4727,60.6922 C29.4697,60.6942 29.4677,60.6962 29.4647,60.6982 L29.4647,60.6982 C29.4637,60.6992 29.4637,60.6992 29.4627,60.7002 L29.4427,60.7182 C29.4417,60.7192 29.4407,60.7192 29.4407,60.7202 L29.4387,60.7202 C29.4377,60.7212 29.4367,60.7212 29.4367,60.7222 C29.4357,60.7232 29.4357,60.7232 29.4347,60.7242 C29.4337,60.7242 29.4337,60.7252 29.4327,60.7252 L29.4327,60.7262 C29.4317,60.7262 29.4317,60.7272 29.4307,60.7272 L29.4307,60.7272 C29.4307,60.7282 29.4297,60.7282 29.4297,60.7292 L29.4287,60.7292 C29.4287,60.7302 29.4277,60.7302 29.4277,60.7312 C29.4217,60.7362 29.4157,60.7412 29.4097,60.7472 L29.4087,60.7482 C29.4077,60.7482 29.4077,60.7482 29.4077,60.7492 L29.4067,60.7502 L29.4057,60.7502 C29.4057,60.7512 29.4047,60.7512 29.4047,60.7522 L29.4037,60.7522 C29.4037,60.7532 29.4027,60.7532 29.4027,60.7542 L29.4017,60.7542 C29.4017,60.7552 29.4007,60.7552 29.4007,60.7552 C29.4007,60.7562 29.3997,60.7562 29.3997,60.7562 L29.3987,60.7572 C29.3987,60.7572 29.3987,60.7582 29.3977,60.7582 L29.3967,60.7592 L29.3957,60.7592 C29.3957,60.7602 29.3947,60.7602 29.3947,60.7612 L29.3937,60.7612 C29.3937,60.7612 29.3927,60.7612 29.3927,60.7622 L29.3917,60.7622 C29.3917,60.7632 29.3907,60.7632 29.3907,60.7632 C29.3907,60.7642 29.3907,60.7642 29.3897,60.7642 L29.3887,60.7652 L29.3887,60.7662 C29.3877,60.7662 29.3877,60.7672 29.3867,60.7672 L29.3867,60.7682 C29.3857,60.7682 29.3857,60.7682 29.3857,60.7692 L29.3847,60.7692 C29.3847,60.7702 29.3837,60.7702 29.3827,60.7712 C29.3827,60.7722 29.3817,60.7722 29.3807,60.7732 L29.3747,60.7792 C29.3737,60.7792 29.3737,60.7802 29.3727,60.7812 L29.3727,60.7812 C29.3717,60.7822 29.3717,60.7822 29.3707,60.7822 L29.3707,60.7832 C29.3697,60.7832 29.3697,60.7842 29.3687,60.7842 L29.3687,60.7852 L29.3677,60.7862 L29.3667,60.7872 L29.3657,60.7882 L29.3647,60.7892 C29.3647,60.7892 29.3637,60.7892 29.3637,60.7902 C29.3637,60.7902 29.3627,60.7902 29.3627,60.7912 C29.3627,60.7912 29.3617,60.7912 29.3617,60.7922 C29.3617,60.7922 29.3607,60.7922 29.3607,60.7932 C29.3607,60.7932 29.3597,60.7932 29.3597,60.7942 L29.3587,60.7942 C29.3587,60.7952 29.3577,60.7952 29.3577,60.7952 C29.3577,60.7962 29.3567,60.7962 29.3567,60.7962 C29.3567,60.7972 29.3557,60.7972 29.3557,60.7972 C29.3557,60.7982 29.3547,60.7982 29.3547,60.7982 C29.3547,60.7992 29.3537,60.7992 29.3537,60.7992 C29.3537,60.8002 29.3527,60.8002 29.3527,60.8002 C29.3527,60.8012 29.3517,60.8012 29.3517,60.8012 C29.3517,60.8022 29.3507,60.8022 29.3507,60.8022 C29.3507,60.8032 29.3497,60.8032 29.3497,60.8032 L29.3487,60.8032 L29.3477,60.8042 L29.3477,60.8052 C29.3467,60.8052 29.3467,60.8062 29.3457,60.8062 L29.3457,60.8072 C29.3447,60.8072 29.3447,60.8082 29.3437,60.8082 L29.3437,60.8092 C29.3427,60.8092 29.3427,60.8102 29.3417,60.8102 L29.3417,60.8112 C29.3407,60.8112 29.3407,60.8122 29.3397,60.8122 C29.3397,60.8122 29.3397,60.8122 29.3397,60.8132 C29.3387,60.8132 29.3387,60.8142 29.3377,60.8142 L29.3367,60.8152 L29.3357,60.8172 C29.3347,60.8172 29.3347,60.8172 29.3337,60.8182 L29.3337,60.8182 C29.3327,60.8192 29.3327,60.8192 29.3317,60.8202 L29.3317,60.8202 C29.3307,60.8212 29.3307,60.8212 29.3297,60.8222 L29.3297,60.8222 C29.3287,60.8232 29.3287,60.8232 29.3277,60.8242 L29.3277,60.8242 C29.3267,60.8252 29.3267,60.8252 29.3267,60.8262 L29.3257,60.8262 C29.3257,60.8272 29.3247,60.8272 29.3247,60.8282 L29.3237,60.8282 C29.3237,60.8292 29.3227,60.8292 29.3227,60.8302 L29.3217,60.8302 C29.3217,60.8312 29.3207,60.8312 29.3207,60.8322 L29.3197,60.8322 C29.3197,60.8332 29.3187,60.8332 29.3187,60.8342 L29.3177,60.8342 C29.3177,60.8352 29.3167,60.8352 29.3167,60.8362 L29.3157,60.8362 C29.3157,60.8372 29.3147,60.8372 29.3147,60.8382 L29.3137,60.8382 C29.3137,60.8392 29.3127,60.8392 29.3127,60.8402 L29.3117,60.8402 C29.3117,60.8412 29.3107,60.8412 29.3107,60.8422 L29.3097,60.8422 C29.3097,60.8432 29.3087,60.8432 29.3087,60.8442 L29.3077,60.8442 C29.3077,60.8452 29.3067,60.8452 29.3067,60.8452 L29.3057,60.8452 C29.3057,60.8462 29.3057,60.8462 29.3047,60.8472 C29.2997,60.8522 29.2947,60.8572 29.2887,60.8622 L29.2887,60.8632 C29.2887,60.8632 29.2877,60.8642 29.2867,60.8652 C29.2867,60.8652 29.2857,60.8662 29.2847,60.8662 L29.2847,60.8672 C29.2847,60.8672 29.2837,60.8682 29.2837,60.8692 C29.2827,60.8692 29.2817,60.8702 29.2817,60.8712 C29.2807,60.8712 29.2797,60.8722 29.2797,60.8732 C29.2787,60.8742 29.2777,60.8742 29.2777,60.8752 C29.2767,60.8762 29.2757,60.8762 29.2757,60.8772 C29.1577,60.9972 29.0287,61.1422 28.8937,61.3082 C28.8927,61.3092 28.8917,61.3102 28.8907,61.3102 L28.8907,61.3112 C28.8907,61.3112 28.8897,61.3122 28.8887,61.3132 L28.8887,61.3132 C28.8887,61.3142 28.8877,61.3152 28.8867,61.3162 C28.8857,61.3172 28.8857,61.3182 28.8847,61.3192 L28.8847,61.3192 C28.8837,61.3202 28.8837,61.3212 28.8827,61.3212 C28.8827,61.3222 28.8827,61.3222 28.8817,61.3222 C28.8817,61.3232 28.8807,61.3242 28.8807,61.3242 L28.8797,61.3252 L28.8777,61.3272 L28.8777,61.3282 C28.8767,61.3292 28.8757,61.3292 28.8757,61.3302 L28.8747,61.3312 C28.8747,61.3322 28.8737,61.3322 28.8737,61.3332 C28.8727,61.3332 28.8727,61.3342 28.8727,61.3342 C28.8717,61.3342 28.8717,61.3352 28.8707,61.3362 C28.8707,61.3362 28.8707,61.3362 28.8697,61.3372 C28.8697,61.3382 28.8687,61.3382 28.8687,61.3392 C28.8687,61.3392 28.8687,61.3392 28.8677,61.3402 L28.8667,61.3412 C28.8667,61.3422 28.8657,61.3422 28.8657,61.3432 C28.8647,61.3432 28.8647,61.3442 28.8647,61.3442 C28.8637,61.3452 28.8637,61.3452 28.8627,61.3452 C28.8627,61.3452 28.8627,61.3462 28.8617,61.3462 C28.8617,61.3472 28.8607,61.3472 28.8607,61.3482 L28.8597,61.3492 C28.8567,61.3532 28.8537,61.3572 28.8497,61.3612 C28.8487,61.3632 28.8467,61.3652 28.8457,61.3672 L28.8457,61.3682 C28.8447,61.3692 28.8437,61.3692 28.8427,61.3702 C28.7427,61.4952 28.6387,61.6302 28.5317,61.7712 L29.3317,62.3722 C29.8917,61.6252 30.1187,61.4512 30.1587,61.4242 C30.2147,61.3852 30.3007,61.3382 30.4117,61.2802 L29.9497,60.3932 Z M32.6877,59.1732 C31.9647,59.4722 31.3467,59.7382 30.8517,59.9632 L31.2637,60.8742 C31.7507,60.6532 32.3597,60.3912 33.0717,60.0952 L32.6877,59.1732 Z M35.4717,58.0492 C35.1997,58.1552 34.9347,58.2612 34.6787,58.3632 C34.3067,58.5112 33.9527,58.6542 33.6147,58.7922 L33.9917,59.7182 C34.5597,59.4862 35.1777,59.2392 35.8387,58.9782 L35.4717,58.0492 Z M38.2667,56.9622 C37.6187,57.2112 36.9957,57.4512 36.4007,57.6832 L36.7647,58.6152 C37.3577,58.3842 37.9787,58.1432 38.6247,57.8952 L38.2667,56.9622 Z M41.0727,55.8992 C40.5807,56.0842 40.0997,56.2642 39.6287,56.4432 C39.6257,56.4442 39.6227,56.4452 39.6187,56.4472 C39.6177,56.4472 39.6157,56.4482 39.6137,56.4492 C39.4747,56.5022 39.3377,56.5532 39.2007,56.6052 L39.5557,57.5402 C40.1607,57.3102 40.7837,57.0752 41.4237,56.8362 L41.0727,55.8992 Z M43.8867,54.8562 C43.3437,55.0552 42.8077,55.2542 42.2817,55.4492 C42.1907,55.4822 42.0997,55.5162 42.0097,55.5502 L42.3577,56.4872 C42.9707,56.2602 43.5957,56.0282 44.2307,55.7952 L43.8867,54.8562 Z M46.7057,53.8312 C46.0707,54.0592 45.4437,54.2872 44.8247,54.5122 L45.1677,55.4522 C45.7847,55.2262 46.4117,55.0002 47.0447,54.7712 L46.7057,53.8312 Z M49.5307,52.8222 C48.8987,53.0462 48.2687,53.2702 47.6457,53.4932 L47.9827,54.4342 C48.6057,54.2122 49.2327,53.9882 49.8637,53.7652 L49.5307,52.8222 Z M52.3627,51.8312 C51.7307,52.0502 51.1017,52.2692 50.4737,52.4902 L50.8057,53.4332 C51.4317,53.2142 52.0597,52.9942 52.6897,52.7762 L52.3627,51.8312 Z M55.2007,50.8592 C54.5707,51.0722 53.9407,51.2882 53.3077,51.5052 L53.6337,52.4512 C54.2637,52.2342 54.8927,52.0182 55.5207,51.8062 L55.2007,50.8592 Z M58.0457,49.9082 C57.4177,50.1152 56.7847,50.3262 56.1487,50.5392 L56.4677,51.4872 C57.1007,51.2742 57.7327,51.0642 58.3587,50.8572 L58.0457,49.9082 Z M60.8997,48.9812 C60.2967,49.1742 59.6857,49.3712 59.0687,49.5722 C59.0447,49.5802 59.0207,49.5882 58.9967,49.5952 L59.3067,50.5472 C59.9457,50.3382 60.5797,50.1332 61.2037,49.9332 L60.8997,48.9812 Z M63.7637,48.0852 C63.1387,48.2762 62.5027,48.4742 61.8527,48.6782 L62.1537,49.6332 C62.7997,49.4282 63.4337,49.2312 64.0557,49.0422 L63.7637,48.0852 Z M66.6387,47.2302 C66.0167,47.4092 65.3767,47.5972 64.7197,47.7952 L65.0077,48.7532 C65.6607,48.5562 66.2977,48.3692 66.9147,48.1912 L66.6387,47.2302 Z M69.5317,46.4352 C69.5157,46.4392 69.5007,46.4432 69.4857,46.4472 C68.8857,46.6032 68.2567,46.7742 67.6007,46.9572 L67.8707,47.9202 C68.5357,47.7342 69.1747,47.5612 69.7827,47.4032 L69.5317,46.4352 Z M72.4517,45.7452 C71.8537,45.8692 71.2007,46.0172 70.5007,46.1902 L70.7387,47.1612 C71.4357,46.9902 72.0807,46.8432 72.6527,46.7242 L72.4517,45.7452 Z M75.4187,45.3432 L75.4157,45.3432 L75.4147,45.3432 L75.4127,45.3432 L75.4117,45.3432 L75.4097,45.3432 L75.4087,45.3432 L75.4067,45.3432 L75.4057,45.3432 L75.4037,45.3432 L75.4007,45.3432 L75.3997,45.3432 L75.3977,45.3432 L75.3967,45.3432 L75.3947,45.3432 L75.3937,45.3432 L75.3917,45.3432 L75.3907,45.3432 C75.3897,45.3432 75.3897,45.3432 75.3887,45.3442 L75.3857,45.3442 L75.3827,45.3442 L75.3817,45.3442 L75.3797,45.3442 L75.3767,45.3442 L75.3747,45.3442 L75.3737,45.3442 L75.3717,45.3442 L75.3687,45.3442 L75.3677,45.3442 L75.3657,45.3442 L75.3647,45.3442 L75.3637,45.3442 L75.3617,45.3442 L75.3607,45.3442 L75.3587,45.3442 L75.3577,45.3442 L75.3557,45.3442 L75.3547,45.3442 L75.3517,45.3442 L75.3507,45.3442 L75.3487,45.3442 L75.3477,45.3442 L75.3477,45.3442 L75.3457,45.3442 L75.3437,45.3442 L75.3427,45.3442 L75.3407,45.3442 L75.3397,45.3442 L75.3347,45.3442 L75.3327,45.3442 L75.3317,45.3442 L75.3297,45.3442 L75.3287,45.3442 L75.3267,45.3442 L75.3257,45.3442 L75.3167,45.3442 L75.3157,45.3442 L75.3137,45.3442 L75.3127,45.3442 L75.3107,45.3442 C75.3067,45.3452 75.3047,45.3452 75.3017,45.3452 L75.3007,45.3452 L75.2987,45.3452 L75.2957,45.3452 L75.2797,45.3452 L75.2647,45.3452 L75.2637,45.3452 C74.7787,45.3582 74.1627,45.4322 73.4337,45.5572 L73.6047,46.5432 C74.3737,46.4102 74.9827,46.3432 75.4187,46.3432 L75.4187,45.3432 Z" id="Fill-46" fill="#6CE4F2" sketch:type="MSShapeGroup"></path>
                <path d="M78.2368,44.1758 C78.5318,44.2998 78.8108,44.4288 79.0788,44.5638 C78.5688,44.2998 78.2368,44.1758 78.2368,44.1758" id="Fill-48" fill="#E8FBFD" sketch:type="MSShapeGroup"></path>
                <path d="M78.854,45.0098 C78.596,44.8798 78.327,44.7558 78.043,44.6368 L78.412,43.7068 C78.412,43.7068 78.765,43.8388 79.308,44.1188 L78.854,45.0098 Z" id="Fill-50" fill="#21CEDB" sketch:type="MSShapeGroup"></path>
                <path d="M79.104,44.5771 C79.239,44.6441 79.362,44.7161 79.491,44.7861 C79.352,44.7081 79.225,44.6391 79.104,44.5771" id="Fill-52" fill="#E8FBFD" sketch:type="MSShapeGroup"></path>
                <path d="M79.2515,45.2246 L78.8775,45.0226 L79.3275,44.1296 L79.7355,44.3506 L79.2515,45.2246 Z" id="Fill-54" fill="#21CEDB" sketch:type="MSShapeGroup"></path>
                <path d="M49.7759,78.8154 C51.7349,78.7414 53.8219,78.6524 56.0039,78.5574 L45.8809,61.3374 L40.4679,62.9834 L49.7759,78.8154 Z" id="Fill-56" fill="#6AE3F2" sketch:type="MSShapeGroup"></path>
                <path d="M41.2212,63.2773 L50.0552,78.3043 C51.6752,78.2423 53.3792,78.1713 55.1512,78.0933 L45.6502,61.9303 L41.2212,63.2773 Z M49.4962,79.3263 L39.7152,62.6893 L46.1132,60.7453 L56.8562,79.0213 L56.0252,79.0573 C53.8422,79.1523 51.7542,79.2413 49.7942,79.3153 L49.4962,79.3263 Z" id="Fill-58" fill="#21CEDB" sketch:type="MSShapeGroup"></path>
                <path d="M64.7681,78.1729 C66.8151,78.0839 68.8991,77.9969 70.9971,77.9139 L58.9201,57.3729 L53.5071,59.0189 L64.7681,78.1729 Z" id="Fill-60" fill="#6AE3F2" sketch:type="MSShapeGroup"></path>
                <path d="M54.2603,59.3125 L65.0463,77.6605 C66.7253,77.5875 68.4283,77.5165 70.1423,77.4475 L58.6893,57.9655 L54.2603,59.3125 Z M64.4893,78.6855 L52.7543,58.7245 L59.1523,56.7805 L71.8513,78.3805 L71.0163,78.4145 C68.9193,78.4975 66.8363,78.5835 64.7893,78.6725 L64.4893,78.6855 Z" id="Fill-62" fill="#21CEDB" sketch:type="MSShapeGroup"></path>
                <path d="M66.6704,55.0166 L79.9494,77.6056 C82.0764,77.5436 84.1844,77.4956 86.2444,77.4606 L72.0824,53.3706 L66.6704,55.0166 Z" id="Fill-64" fill="#6AE3F2" sketch:type="MSShapeGroup"></path>
                <path d="M67.4233,55.3105 L80.2313,77.0975 C81.9663,77.0475 83.6873,77.0065 85.3793,76.9755 L71.8513,53.9635 L67.4233,55.3105 Z M79.6683,78.1145 L79.5193,77.8585 L65.9173,54.7225 L72.3143,52.7785 L87.1103,77.9465 L86.2523,77.9605 C84.1943,77.9955 82.0893,78.0435 79.9643,78.1055 L79.6683,78.1145 Z" id="Fill-66" fill="#21CEDB" sketch:type="MSShapeGroup"></path>
                <path d="M20.9868,81.4141 C20.9868,81.4141 30.9048,82.5811 39.9048,82.5811 C46.7998,82.5811 73.2898,82.2531 87.9128,81.8681 L117.6548,81.6641 C117.6548,81.6641 119.7388,80.9971 119.7388,79.5801 C119.7388,78.2461 118.9868,77.2461 118.2958,77.2461 C113.0608,77.2461 101.9638,77.2721 88.1118,77.4351 C70.9068,77.6371 49.9218,79.0601 40.0488,79.0601 C35.2228,79.0601 21.0578,78.2461 21.0578,78.2461 L20.9868,81.4141 Z" id="Fill-68" fill="#E8FBFD" sketch:type="MSShapeGroup"></path>
                <path d="M22.0073,80.5205 C24.6493,80.8015 32.6273,81.5815 39.9043,81.5815 C46.7863,81.5815 73.3413,81.2505 87.8863,80.8685 L117.4783,80.6655 C117.9763,80.4705 118.7383,80.0175 118.7383,79.5805 C118.7383,78.7915 118.3723,78.2985 118.2263,78.2355 C114.0643,78.2465 102.6533,78.2645 88.1233,78.4345 C79.0073,78.5415 68.7973,78.9935 59.7893,79.3915 C51.6943,79.7495 44.7033,80.0595 40.0493,80.0595 C35.9553,80.0595 25.4063,79.4905 22.0343,79.3025 L22.0073,80.5205 Z M39.9043,83.5815 C30.9493,83.5815 20.9693,82.4185 20.8703,82.4075 L19.9663,82.3005 L20.0813,77.1885 L21.1153,77.2485 C21.2573,77.2555 35.3073,78.0595 40.0493,78.0595 C44.6583,78.0595 51.6293,77.7505 59.7013,77.3935 C68.7243,76.9955 78.9503,76.5415 88.1003,76.4345 C102.6413,76.2645 114.0603,76.2465 118.2953,76.2465 C119.6433,76.2465 120.7383,77.7425 120.7383,79.5805 C120.7383,81.6665 118.2433,82.5255 117.9593,82.6165 L117.6613,82.6645 L87.9193,82.8685 C73.3793,83.2505 46.7953,83.5815 39.9043,83.5815 L39.9043,83.5815 Z" id="Fill-70" fill="#21CEDB" sketch:type="MSShapeGroup"></path>
                <path d="M109.5063,52.3643 C109.3483,52.4623 109.1803,52.5613 108.9983,52.6673 C108.9673,52.6853 108.9403,52.7023 108.9083,52.7203 C108.7033,52.8413 108.4813,52.9663 108.2503,53.0943 C108.1883,53.1303 108.1233,53.1643 108.0593,53.2003 C107.8633,53.3073 107.6603,53.4163 107.4493,53.5263 C107.3913,53.5573 107.3383,53.5873 107.2793,53.6163 C107.0223,53.7513 106.7523,53.8853 106.4773,54.0203 C106.4083,54.0543 106.3383,54.0873 106.2683,54.1203 C106.0373,54.2323 105.7993,54.3433 105.5573,54.4543 C105.4853,54.4873 105.4123,54.5203 105.3403,54.5523 C105.0393,54.6863 104.7333,54.8193 104.4203,54.9483 C104.3583,54.9723 104.2953,54.9973 104.2353,55.0213 C103.9673,55.1303 103.6973,55.2333 103.4243,55.3353 C103.3423,55.3663 103.2603,55.3963 103.1763,55.4273 C102.8463,55.5463 102.5123,55.6603 102.1743,55.7663 C102.1353,55.7783 102.0963,55.7893 102.0593,55.8023 C101.7563,55.8953 101.4513,55.9813 101.1453,56.0633 C101.0553,56.0873 100.9673,56.1093 100.8793,56.1323 C100.5333,56.2193 100.1863,56.3013 99.8383,56.3683 L99.8343,56.3683 C98.9753,56.5363 98.1153,56.6293 97.2743,56.6433 L97.2173,56.6493 C97.2173,56.6493 101.5703,59.2883 104.6273,59.7153 C107.6843,60.1413 110.3243,56.9383 112.9653,56.2473 C114.2463,55.9113 116.4323,57.3213 118.2873,57.6363 C118.9863,55.4563 116.3183,50.3193 116.1063,48.4143 C115.6063,43.9283 113.6413,43.1593 113.1023,43.1633 C113.0553,43.1653 113.0163,43.1693 112.9863,43.1763 C109.7363,44.0073 111.8813,50.8503 110.1313,51.9753 C109.9883,52.0673 109.8263,52.1693 109.6543,52.2743 C109.6063,52.3033 109.5573,52.3333 109.5063,52.3643" id="Fill-72" fill="#6AE3F2" sketch:type="MSShapeGroup"></path>
                <path d="M98.9136,57.0234 C100.4246,57.8204 102.8336,58.9604 104.6966,59.2194 C106.3806,59.4614 107.9956,58.4234 109.5656,57.4264 C110.6286,56.7524 111.7276,56.0544 112.8386,55.7634 C113.6976,55.5394 114.8806,55.9584 116.1086,56.4274 C116.7056,56.6564 117.3176,56.8914 117.8946,57.0414 C118.0116,55.7014 117.2076,53.4534 116.5486,51.6084 C116.0886,50.3234 115.6916,49.2134 115.6086,48.4694 C115.1646,44.4784 113.5216,43.6634 113.1056,43.6634 C111.5966,44.0474 111.5286,46.2574 111.4646,48.3954 C111.4086,50.2114 111.3606,51.7794 110.4016,52.3964 C110.2566,52.4894 110.0916,52.5924 109.9166,52.7004 L109.7676,52.7904 C109.6066,52.8894 109.4346,52.9914 109.2496,53.0994 L108.9086,52.7204 L109.1616,53.1524 C108.9536,53.2734 108.7276,53.4004 108.4946,53.5314 L108.3036,53.6364 C108.1016,53.7474 107.8956,53.8574 107.6816,53.9694 L107.5036,54.0634 C107.2496,54.1964 106.9766,54.3334 106.6966,54.4694 L106.5346,54.5474 C106.2526,54.6834 106.0106,54.7964 105.7646,54.9094 L105.5436,55.0094 C105.2386,55.1454 104.9286,55.2804 104.6106,55.4104 L104.4216,55.4854 C104.1506,55.5944 103.8766,55.7004 103.5986,55.8034 L103.3466,55.8974 C103.0096,56.0184 102.6696,56.1344 102.3246,56.2434 L102.3236,56.2444 L102.2066,56.2794 C101.8976,56.3754 101.5876,56.4624 101.2736,56.5464 L101.0106,56.6144 C100.6476,56.7074 100.2906,56.7904 99.9336,56.8594 C99.5936,56.9244 99.2526,56.9804 98.9136,57.0234 M105.1916,60.2534 C104.9816,60.2534 104.7706,60.2394 104.5586,60.2104 C101.4356,59.7744 97.1396,57.1864 96.9586,57.0774 L95.6846,56.3054 L97.1656,56.1524 C98.0746,56.1294 98.9066,56.0404 99.7386,55.8774 L99.8386,55.8684 C100.0816,55.8114 100.4196,55.7324 100.7566,55.6474 L101.0186,55.5804 C101.3156,55.5004 101.6146,55.4164 101.9116,55.3244 L102.1746,55.7664 L102.0236,55.2904 C102.3546,55.1854 102.6836,55.0734 103.0066,54.9564 L103.2466,54.8684 C103.5186,54.7664 103.7836,54.6654 104.0476,54.5574 L104.2356,54.4834 C104.5376,54.3584 104.8406,54.2274 105.1376,54.0954 L105.3456,54.0014 C105.5886,53.8904 105.8226,53.7814 106.0496,53.6704 L106.2536,53.5734 C106.5286,53.4384 106.7946,53.3054 107.0486,53.1724 L107.1646,53.1114 C107.4256,52.9744 107.6256,52.8684 107.8176,52.7614 L108.0056,52.6594 C108.2336,52.5314 108.4536,52.4084 108.6556,52.2894 L108.7476,52.2344 C108.9256,52.1314 109.0896,52.0344 109.2436,51.9384 L109.3956,51.8464 C109.5616,51.7454 109.7216,51.6454 109.8606,51.5554 C110.3776,51.2224 110.4236,49.7054 110.4646,48.3654 C110.5336,46.0924 110.6196,43.2644 112.8626,42.6914 C112.9266,42.6764 112.9966,42.6674 113.0816,42.6634 C114.0976,42.6634 116.1006,43.8544 116.6026,48.3584 C116.6736,48.9864 117.0696,50.0964 117.4896,51.2714 C118.3206,53.5964 119.2636,56.2324 118.7646,57.7894 L118.6316,58.2024 L118.2036,58.1294 C117.3956,57.9924 116.5596,57.6714 115.7516,57.3614 C114.6926,56.9564 113.6596,56.5814 113.0926,56.7304 C112.1326,56.9824 111.1456,57.6084 110.1016,58.2704 C108.5656,59.2464 106.9776,60.2534 105.1916,60.2534" id="Fill-74" fill="#21CEDB" sketch:type="MSShapeGroup"></path>
                <path d="M29.6802,63.8389 C29.6802,63.8389 28.7812,61.7669 27.1102,60.0949 C28.0942,58.7669 28.5042,58.6119 29.2372,59.2199 C30.3362,60.1309 31.1352,60.7289 31.3642,62.3599 C30.9872,63.1639 30.6142,63.8389 29.6802,63.8389" id="Fill-76" fill="#E8FBFD" sketch:type="MSShapeGroup"></path>
                <path d="M27.7681,60.0586 C28.9231,61.3106 29.6701,62.6776 29.9781,63.2996 C30.3361,63.1956 30.5601,62.8756 30.8461,62.2836 C30.6321,61.0206 30.0291,60.5226 29.0531,59.7166 L28.9181,59.6046 C28.6931,59.4176 28.5791,59.3786 28.5231,59.3786 C28.3821,59.3786 28.1281,59.6076 27.7681,60.0586 M29.6801,64.3386 L29.3521,64.3386 L29.2221,64.0376 C29.2131,64.0186 28.3361,62.0286 26.7561,60.4486 L26.4521,60.1436 L26.7081,59.7966 C27.3731,58.8996 27.8841,58.3786 28.5231,58.3786 C28.9521,58.3786 29.3001,58.6226 29.5561,58.8346 L29.6901,58.9466 C30.7651,59.8326 31.6131,60.5346 31.8591,62.2896 L31.8791,62.4376 L31.8161,62.5716 C31.4871,63.2756 30.9891,64.3386 29.6801,64.3386" id="Fill-78" fill="#21CEDB" sketch:type="MSShapeGroup"></path>
                <path d="M37.3921,61.4463 C36.7371,60.9973 37.3921,56.8353 39.7001,54.8173 C40.5201,54.1003 42.0311,53.5943 42.1531,54.2213 C40.4671,55.8863 40.0491,58.3883 39.6531,60.5243 C38.1801,61.5403 38.0471,61.8953 37.3921,61.4463" id="Fill-80" fill="#E8FBFD" sketch:type="MSShapeGroup"></path>
                <path d="M37.8706,62.1377 C37.5566,62.1377 37.2986,61.9887 37.1096,61.8587 C36.8376,61.6717 36.6896,61.3187 36.6576,60.7787 C36.5646,59.1977 37.4556,56.1157 39.3706,54.4417 C40.0256,53.8687 41.0186,53.4377 41.6826,53.4377 C42.2926,53.4377 42.5786,53.7927 42.6436,54.1257 L42.6946,54.3887 L42.5046,54.5767 C40.9836,56.0797 40.5576,58.3817 40.1826,60.4117 L40.1066,60.8187 L39.9366,60.9357 C39.6236,61.1527 39.3716,61.3377 39.1626,61.4917 C38.6176,61.8947 38.2876,62.1377 37.8706,62.1377 M41.2066,54.5417 C40.8106,54.6667 40.3636,54.9017 40.0286,55.1947 C37.9596,57.0027 37.4316,60.5997 37.7236,61.0797 C37.8246,61.1367 37.8706,61.1377 37.8706,61.1377 C37.9586,61.1377 38.2836,60.8987 38.5696,60.6877 C38.7456,60.5567 38.9526,60.4057 39.1986,60.2317 L39.1986,60.2307 C39.5506,58.3257 39.9446,56.1997 41.2066,54.5417" id="Fill-82" fill="#21CEDB" sketch:type="MSShapeGroup"></path>
                <path d="M44.9546,58.9541 C44.2996,58.5061 44.9546,54.3431 47.2626,52.3261 C48.0826,51.6091 49.5936,51.1021 49.7156,51.7291 C48.0296,53.3941 47.6116,55.8961 47.2156,58.0331 C45.7426,59.0481 45.6096,59.4041 44.9546,58.9541" id="Fill-84" fill="#E8FBFD" sketch:type="MSShapeGroup"></path>
                <path d="M45.4331,59.6455 C45.1201,59.6455 44.8621,59.4975 44.6721,59.3675 C44.3991,59.1805 44.2521,58.8265 44.2201,58.2865 C44.1271,56.7055 45.0181,53.6235 46.9331,51.9495 C47.5871,51.3765 48.5811,50.9455 49.2461,50.9455 C49.8551,50.9455 50.1411,51.3005 50.2061,51.6335 L50.2581,51.8965 L50.0671,52.0855 C48.5461,53.5865 48.1211,55.8865 47.7451,57.9165 L47.6691,58.3275 L47.4991,58.4445 C47.1861,58.6605 46.9341,58.8455 46.7251,58.9995 C46.1801,59.4025 45.8501,59.6455 45.4331,59.6455 M48.7701,52.0505 C48.3731,52.1745 47.9261,52.4095 47.5911,52.7025 C45.5221,54.5115 44.9951,58.1075 45.2861,58.5875 C45.3871,58.6445 45.4321,58.6465 45.4331,58.6465 C45.5221,58.6465 45.8451,58.4065 46.1311,58.1955 C46.3081,58.0655 46.5141,57.9145 46.7611,57.7405 L46.7621,57.7345 C47.1141,55.8315 47.5081,53.7065 48.7701,52.0505" id="Fill-86" fill="#21CEDB" sketch:type="MSShapeGroup"></path>
                <path d="M52.5181,56.4629 C51.8631,56.0139 52.5181,51.8519 54.8261,49.8339 C55.6461,49.1169 57.1571,48.6109 57.2801,49.2379 C55.5921,50.9029 55.1761,53.4049 54.7791,55.5409 C53.3051,56.5569 53.1731,56.9119 52.5181,56.4629" id="Fill-88" fill="#E8FBFD" sketch:type="MSShapeGroup"></path>
                <path d="M52.9966,57.1543 C52.6826,57.1543 52.4246,57.0053 52.2346,56.8753 C51.9636,56.6883 51.8156,56.3353 51.7836,55.7953 C51.6906,54.2143 52.5816,51.1323 54.4966,49.4583 C55.1506,48.8863 56.1446,48.4543 56.8096,48.4543 C57.4186,48.4543 57.7046,48.8103 57.7696,49.1423 L57.8206,49.4053 L57.6316,49.5933 C56.1106,51.0943 55.6846,53.3933 55.3096,55.4213 L55.2326,55.8363 L55.0626,55.9533 C54.7486,56.1703 54.4966,56.3553 54.2876,56.5093 C53.7426,56.9113 53.4136,57.1543 52.9966,57.1543 M56.3336,49.5583 C55.9356,49.6833 55.4896,49.9183 55.1546,50.2113 C53.0856,52.0193 52.5576,55.6163 52.8486,56.0963 C52.9496,56.1533 52.9956,56.1543 52.9966,56.1543 C53.0846,56.1543 53.4076,55.9163 53.6936,55.7053 C53.8706,55.5743 54.0776,55.4223 54.3246,55.2483 L54.3256,55.2393 C54.6786,53.3373 55.0716,51.2143 56.3336,49.5583" id="Fill-90" fill="#21CEDB" sketch:type="MSShapeGroup"></path>
                <path d="M60.0806,53.9717 C59.4256,53.5227 60.0806,49.3607 62.3886,47.3427 C63.2086,46.6257 64.7196,46.1197 64.8426,46.7467 C63.1546,48.4117 62.7386,50.9137 62.3416,53.0497 C60.8676,54.0657 60.7356,54.4207 60.0806,53.9717" id="Fill-92" fill="#E8FBFD" sketch:type="MSShapeGroup"></path>
                <path d="M60.5591,54.6631 C60.2451,54.6631 59.9871,54.5141 59.7971,54.3841 C59.5261,54.1971 59.3781,53.8441 59.3461,53.3041 C59.2531,51.7231 60.1441,48.6411 62.0591,46.9671 C62.7131,46.3941 63.7071,45.9631 64.3721,45.9631 C64.9811,45.9631 65.2681,46.3181 65.3321,46.6501 L65.3841,46.9141 L65.1941,47.1021 C63.6741,48.6011 63.2481,50.8991 62.8721,52.9261 L62.7951,53.3451 L62.6251,53.4621 C62.3111,53.6781 62.0591,53.8641 61.8501,54.0181 C61.3051,54.4201 60.9761,54.6631 60.5591,54.6631 M63.8961,47.0671 C63.4991,47.1921 63.0521,47.4271 62.7171,47.7201 C60.6491,49.5281 60.1211,53.1251 60.4121,53.6051 C60.5131,53.6621 60.5581,53.6631 60.5591,53.6631 C60.6471,53.6631 60.9701,53.4241 61.2561,53.2141 C61.4331,53.0831 61.6401,52.9311 61.8871,52.7571 L61.8891,52.7431 C62.2421,50.8431 62.6351,48.7211 63.8961,47.0671" id="Fill-94" fill="#21CEDB" sketch:type="MSShapeGroup"></path>
                <path d="M78.6567,46.8838 C76.7427,43.3898 73.5217,42.6728 71.5867,43.1958 C69.6527,43.7178 70.0887,44.0498 70.0887,44.8178 C73.2307,45.6238 74.8677,45.0388 77.7137,47.8838 C78.1527,47.2188 77.1647,47.5988 78.6567,46.8838" id="Fill-96" fill="#E8FBFD" sketch:type="MSShapeGroup"></path>
                <path d="M70.563,44.4189 C71.219,44.5719 71.807,44.6659 72.377,44.7579 C74.144,45.0419 75.572,45.2719 77.482,46.9769 C77.596,46.8729 77.756,46.7749 77.954,46.6729 C76.138,43.7759 73.574,43.5419 72.802,43.5419 C72.416,43.5419 72.05,43.5879 71.716,43.6779 C70.519,44.0019 70.531,44.1129 70.562,44.4129 C70.562,44.4149 70.563,44.4169 70.563,44.4189 L70.563,44.4189 Z M77.792,48.6699 L77.36,48.2369 C75.375,46.2529 74.051,46.0399 72.219,45.7449 C71.559,45.6399 70.81,45.5189 69.964,45.3019 L69.588,45.2049 L69.588,44.8169 C69.588,44.7079 69.578,44.6079 69.568,44.5179 C69.463,43.5289 69.87,43.1419 71.456,42.7129 C71.875,42.5999 72.328,42.5419 72.802,42.5419 C75.335,42.5419 77.688,44.0749 79.095,46.6439 L79.349,47.1069 L78.873,47.3349 C78.767,47.3859 78.513,47.5069 78.335,47.6009 C78.331,47.7769 78.262,47.9609 78.13,48.1589 L77.792,48.6699 Z" id="Fill-98" fill="#21CEDB" sketch:type="MSShapeGroup"></path>
                <path d="M67.9927,50.6279 C67.1707,48.7559 69.3697,44.1759 73.5177,42.6849 C74.9167,42.3119 75.4577,43.3729 75.4577,43.3729 C75.4577,43.3729 70.5847,43.1609 70.5847,50.3529 C68.5747,51.1229 69.0087,51.3749 67.9927,50.6279" id="Fill-100" fill="#E8FBFD" sketch:type="MSShapeGroup"></path>
                <path d="M68.4067,50.3115 C68.5687,50.4315 68.7287,50.5485 68.7937,50.5745 C68.8587,50.5615 69.0317,50.4805 69.1987,50.4025 C69.4157,50.3015 69.6977,50.1685 70.0887,50.0105 C70.1907,45.1635 72.4897,43.6045 74.0487,43.1055 C73.9227,43.1095 73.7877,43.1295 73.6467,43.1675 C71.1487,44.0675 69.4847,46.1615 68.7727,47.8165 C68.3467,48.8075 68.2147,49.7265 68.4067,50.3115 M68.7877,51.5765 C68.4357,51.5765 68.1897,51.3945 67.7817,51.0935 L67.5887,50.9515 L67.5347,50.8295 C67.1677,49.9925 67.2837,48.7495 67.8537,47.4215 C68.6487,45.5735 70.5097,43.2345 73.3487,42.2135 C75.2057,41.7075 75.8777,43.0955 75.9027,43.1465 L76.2927,43.9105 L75.4357,43.8735 L75.4347,43.8735 C74.9677,43.8735 71.0847,44.0575 71.0847,50.3525 L71.0847,50.6965 L70.7627,50.8195 C70.2337,51.0225 69.8787,51.1885 69.6227,51.3085 C69.2777,51.4695 69.0497,51.5765 68.7877,51.5765" id="Fill-102" fill="#21CEDB" sketch:type="MSShapeGroup"></path>
                <path d="M81.0747,50.6377 L84.2367,49.6757 L81.0747,50.6377 Z" id="Fill-104" fill="#6AE3F2" sketch:type="MSShapeGroup"></path>
                <path d="M81.2202,51.1162 L80.9292,50.1592 L84.0912,49.1972 L84.3822,50.1542 L81.2202,51.1162 Z" id="Fill-106" fill="#21CEDB" sketch:type="MSShapeGroup"></path>
                <path d="M113.2876,41.4463 C108.1746,41.4463 109.4966,48.6983 108.4246,50.5933 C107.3536,52.4893 101.8326,53.9723 96.6396,54.3023 C93.4326,54.5073 85.2666,49.6873 81.5586,45.4633 C79.1856,42.7593 76.4576,43.5073 76.4576,43.5073 L76.7856,44.0123 C77.4246,43.9923 77.9186,44.0423 78.2366,44.1753 C82.9866,46.1753 84.2366,49.6753 84.2366,49.6753 C85.7366,52.7473 92.2936,55.6283 94.2366,56.2473 C99.7366,57.9973 107.5336,53.6453 110.1316,51.9753 C111.8816,50.8503 109.7366,44.0073 112.9866,43.1753 C113.1996,43.1223 113.9576,43.1083 113.9456,43.0423 C113.9006,42.7883 114.6746,42.4583 114.6746,42.1223 C114.6746,41.7803 114.1586,41.4463 113.2876,41.4463" id="Fill-108" fill="#FFFFFF" sketch:type="MSShapeGroup"></path>
                <path d="M84.3638,48.7754 C84.5928,49.1944 84.6938,49.4674 84.7078,49.5074 C86.0138,52.1744 92.0818,55.0364 94.3878,55.7704 C95.1888,56.0254 96.0898,56.1544 97.0658,56.1544 C102.4338,56.1554 108.6668,52.3234 109.8608,51.5544 C110.3778,51.2224 110.4238,49.7054 110.4648,48.3654 C110.5338,46.0924 110.6198,43.2644 112.8628,42.6914 C112.9698,42.6644 113.1898,42.6414 113.4078,42.6244 C113.4678,42.6194 113.5288,42.6144 113.5838,42.6094 C113.6848,42.4674 113.8268,42.3494 113.9538,42.2454 C114.0008,42.2064 114.0668,42.1504 114.1198,42.1024 C114.0138,42.0554 113.7558,41.9464 113.2878,41.9464 C110.3478,41.9464 109.8348,44.5414 109.4678,47.9344 C109.3368,49.1484 109.2228,50.1974 108.8598,50.8394 C107.6348,53.0094 101.8008,54.4754 96.6708,54.8014 C94.1038,54.9864 88.5248,52.1164 84.3638,48.7754 M97.0658,57.1544 L97.0658,57.1544 C95.9868,57.1544 94.9838,57.0094 94.0858,56.7234 C92.7288,56.2914 85.4828,53.3664 83.7878,49.8954 C83.7548,49.8124 82.5118,46.5184 78.0428,44.6364 C77.9038,44.5784 77.6188,44.5074 77.0518,44.5074 L76.5198,44.5214 L75.6658,43.2054 L76.3258,43.0244 C76.3678,43.0124 76.7538,42.9124 77.3558,42.9124 C78.3378,42.9124 80.2388,43.2014 81.9348,45.1324 C85.4928,49.1874 93.2178,53.8094 96.4348,53.8084 C96.4948,53.8084 96.5518,53.8074 96.6068,53.8034 C102.0008,53.4614 107.1068,51.9114 107.9888,50.3474 C108.2518,49.8844 108.3588,48.8844 108.4728,47.8264 C108.7698,45.0874 109.2178,40.9464 113.2878,40.9464 C114.3988,40.9464 115.1748,41.4294 115.1748,42.1224 C115.1748,42.5304 114.8518,42.7984 114.5928,43.0134 C114.5548,43.0454 114.5078,43.0854 114.4678,43.1204 L114.4768,43.1714 L114.3398,43.3544 C114.1788,43.5634 113.9638,43.5814 113.4908,43.6204 C113.3398,43.6324 113.1858,43.6424 113.1088,43.6614 C111.5958,44.0474 111.5288,46.2574 111.4648,48.3954 C111.4088,50.2114 111.3608,51.7794 110.4018,52.3964 C109.1658,53.1904 102.7138,57.1544 97.0658,57.1544" id="Fill-110" fill="#21CEDB" sketch:type="MSShapeGroup"></path>
                <path d="M96.6392,54.3027 C101.8322,53.9727 107.3542,52.4897 108.4242,50.5937 C108.8602,49.8237 108.9052,48.1667 109.1412,46.4717 L109.1412,46.4707 C108.9072,48.3937 93.2252,53.7787 91.4092,52.6967 L92.6822,53.2817 C94.2762,53.9697 95.6802,54.3647 96.6392,54.3027" id="Fill-112" fill="#FFFFFF" sketch:type="MSShapeGroup"></path>
                <path d="M93.7437,53.1738 C94.9447,53.6258 95.9257,53.8488 96.6067,53.8038 C102.0007,53.4608 107.1067,51.9108 107.9887,50.3478 C108.2477,49.8898 108.3577,48.9108 108.4727,47.8658 C105.5047,49.9348 97.6457,52.5048 93.7437,53.1738 M96.4367,54.8088 C95.4567,54.8088 94.1267,54.4498 92.4837,53.7408 L91.3397,53.2148 C91.2697,53.1888 91.2077,53.1578 91.1527,53.1258 L91.6177,52.2418 L91.7157,52.2868 C91.7837,52.3088 91.9317,52.3388 92.2137,52.3388 C96.1097,52.3378 108.2397,47.6868 108.6467,46.3978 L109.6377,46.5318 C109.6367,46.5398 109.6357,46.5488 109.6347,46.5578 C109.5697,47.0168 109.5207,47.4738 109.4727,47.9098 C109.3407,49.1348 109.2247,50.1938 108.8597,50.8398 C107.6347,53.0098 101.8007,54.4758 96.6707,54.8018 C96.5957,54.8068 96.5167,54.8088 96.4367,54.8088" id="Fill-114" fill="#21CEDB" sketch:type="MSShapeGroup"></path>
            </g>
        </g>
    </g>
</svg>